G04 #@! TF.GenerationSoftware,KiCad,Pcbnew,5.1.4+dfsg1-1~bpo10+1*
G04 #@! TF.CreationDate,2021-01-22T14:12:43-08:00*
G04 #@! TF.ProjectId,ATtiny85UnoShield,41547469-6e79-4383-9555-6e6f53686965,rev?*
G04 #@! TF.SameCoordinates,Original*
G04 #@! TF.FileFunction,Copper,L1,Top*
G04 #@! TF.FilePolarity,Positive*
%FSLAX46Y46*%
G04 Gerber Fmt 4.6, Leading zero omitted, Abs format (unit mm)*
G04 Created by KiCad (PCBNEW 5.1.4+dfsg1-1~bpo10+1) date 2021-01-22 14:12:43*
%MOMM*%
%LPD*%
G04 APERTURE LIST*
%ADD10O,1.600000X1.600000*%
%ADD11R,1.600000X1.600000*%
%ADD12C,1.600000*%
%ADD13C,1.800000*%
%ADD14R,1.800000X1.800000*%
%ADD15C,0.250000*%
G04 APERTURE END LIST*
D10*
X161798000Y-52578000D03*
X164338000Y-52578000D03*
X124718000Y-52578000D03*
X164338000Y-100838000D03*
X127258000Y-52578000D03*
X161798000Y-100838000D03*
X129798000Y-52578000D03*
X159258000Y-100838000D03*
X132338000Y-52578000D03*
X156718000Y-100838000D03*
X134878000Y-52578000D03*
X154178000Y-100838000D03*
X137418000Y-52578000D03*
X151638000Y-100838000D03*
X139958000Y-52578000D03*
X146558000Y-100838000D03*
X142498000Y-52578000D03*
X144018000Y-100838000D03*
X146558000Y-52578000D03*
X141478000Y-100838000D03*
X149098000Y-52578000D03*
X138938000Y-100838000D03*
X151638000Y-52578000D03*
X136398000Y-100838000D03*
X154178000Y-52578000D03*
X133858000Y-100838000D03*
X156718000Y-52578000D03*
X131318000Y-100838000D03*
X159258000Y-52578000D03*
D11*
X128778000Y-100838000D03*
D10*
X122178000Y-52578000D03*
X119638000Y-52578000D03*
D12*
X133858000Y-94020000D03*
D11*
X133858000Y-96520000D03*
D10*
X127254000Y-72136000D03*
X134874000Y-79756000D03*
X129794000Y-72136000D03*
X132334000Y-79756000D03*
X132334000Y-72136000D03*
X129794000Y-79756000D03*
X134874000Y-72136000D03*
D11*
X127254000Y-79756000D03*
D10*
X128778000Y-87122000D03*
D12*
X118618000Y-87122000D03*
D10*
X139700000Y-66548000D03*
D12*
X139700000Y-56388000D03*
D10*
X142748000Y-66548000D03*
D12*
X142748000Y-56388000D03*
D10*
X146558000Y-66548000D03*
D12*
X146558000Y-56388000D03*
D13*
X134874000Y-87122000D03*
D14*
X134874000Y-84582000D03*
D13*
X146558000Y-74676000D03*
D14*
X146558000Y-77216000D03*
D13*
X153670000Y-74676000D03*
D14*
X153670000Y-77216000D03*
D13*
X160782000Y-74676000D03*
D14*
X160782000Y-77216000D03*
D15*
X129798000Y-72132000D02*
X129794000Y-72136000D01*
X129798000Y-52578000D02*
X129798000Y-72132000D01*
X132338000Y-72132000D02*
X132334000Y-72136000D01*
X132338000Y-52578000D02*
X132338000Y-72132000D01*
X134874000Y-52582000D02*
X134878000Y-52578000D01*
X134874000Y-72136000D02*
X134874000Y-52582000D01*
X127254000Y-78706000D02*
X127254000Y-79756000D01*
X126128999Y-77580999D02*
X127254000Y-78706000D01*
X126128999Y-52041999D02*
X126128999Y-77580999D01*
X126717999Y-51452999D02*
X126128999Y-52041999D01*
X136292999Y-51452999D02*
X126717999Y-51452999D01*
X137418000Y-52578000D02*
X136292999Y-51452999D01*
X139958000Y-56130000D02*
X139700000Y-56388000D01*
X139958000Y-52578000D02*
X139958000Y-56130000D01*
X142498000Y-56138000D02*
X142748000Y-56388000D01*
X142498000Y-52578000D02*
X142498000Y-56138000D01*
X146558000Y-53709370D02*
X146558000Y-56388000D01*
X146558000Y-52578000D02*
X146558000Y-53709370D01*
X137668000Y-76200000D02*
X138938000Y-77470000D01*
X138938000Y-77470000D02*
X138938000Y-100838000D01*
X127254000Y-72136000D02*
X131318000Y-76200000D01*
X131318000Y-76200000D02*
X137668000Y-76200000D01*
X133858000Y-97570000D02*
X133858000Y-100838000D01*
X133858000Y-96520000D02*
X133858000Y-97570000D01*
X159882001Y-73776001D02*
X160782000Y-74676000D01*
X153453999Y-67347999D02*
X159882001Y-73776001D01*
X147357999Y-67347999D02*
X153453999Y-67347999D01*
X146558000Y-66548000D02*
X147357999Y-67347999D01*
X150876000Y-74676000D02*
X153670000Y-74676000D01*
X142748000Y-66548000D02*
X150876000Y-74676000D01*
X146558000Y-73406000D02*
X146558000Y-74676000D01*
X139700000Y-66548000D02*
X146558000Y-73406000D01*
X133601208Y-87122000D02*
X128778000Y-87122000D01*
X134874000Y-87122000D02*
X133601208Y-87122000D01*
X131534001Y-80555999D02*
X132334000Y-79756000D01*
X125767999Y-86322001D02*
X131534001Y-80555999D01*
X119417999Y-86322001D02*
X125767999Y-86322001D01*
X118618000Y-87122000D02*
X119417999Y-86322001D01*
M02*
