G04 #@! TF.GenerationSoftware,KiCad,Pcbnew,5.1.4+dfsg1-1~bpo10+1*
G04 #@! TF.CreationDate,2021-01-22T14:12:43-08:00*
G04 #@! TF.ProjectId,ATtiny85UnoShield,41547469-6e79-4383-9555-6e6f53686965,rev?*
G04 #@! TF.SameCoordinates,Original*
G04 #@! TF.FileFunction,Legend,Top*
G04 #@! TF.FilePolarity,Positive*
%FSLAX46Y46*%
G04 Gerber Fmt 4.6, Leading zero omitted, Abs format (unit mm)*
G04 Created by KiCad (PCBNEW 5.1.4+dfsg1-1~bpo10+1) date 2021-01-22 14:12:43*
%MOMM*%
%LPD*%
G04 APERTURE LIST*
%ADD10C,0.150000*%
%ADD11C,0.250000*%
%ADD12C,0.120000*%
G04 APERTURE END LIST*
D10*
X108398571Y-83342857D02*
X108398571Y-82342857D01*
X109898571Y-83342857D01*
X109898571Y-82342857D01*
X109898571Y-81128571D02*
X109112857Y-81128571D01*
X108970000Y-81200000D01*
X108898571Y-81342857D01*
X108898571Y-81628571D01*
X108970000Y-81771428D01*
X109827142Y-81128571D02*
X109898571Y-81271428D01*
X109898571Y-81628571D01*
X109827142Y-81771428D01*
X109684285Y-81842857D01*
X109541428Y-81842857D01*
X109398571Y-81771428D01*
X109327142Y-81628571D01*
X109327142Y-81271428D01*
X109255714Y-81128571D01*
X109827142Y-79771428D02*
X109898571Y-79914285D01*
X109898571Y-80200000D01*
X109827142Y-80342857D01*
X109755714Y-80414285D01*
X109612857Y-80485714D01*
X109184285Y-80485714D01*
X109041428Y-80414285D01*
X108970000Y-80342857D01*
X108898571Y-80200000D01*
X108898571Y-79914285D01*
X108970000Y-79771428D01*
X109898571Y-79128571D02*
X108398571Y-79128571D01*
X109898571Y-78485714D02*
X109112857Y-78485714D01*
X108970000Y-78557142D01*
X108898571Y-78700000D01*
X108898571Y-78914285D01*
X108970000Y-79057142D01*
X109041428Y-79128571D01*
X109112857Y-76628571D02*
X109112857Y-76128571D01*
X109898571Y-75914285D02*
X109898571Y-76628571D01*
X108398571Y-76628571D01*
X108398571Y-75914285D01*
X108898571Y-75271428D02*
X109898571Y-75271428D01*
X109041428Y-75271428D02*
X108970000Y-75200000D01*
X108898571Y-75057142D01*
X108898571Y-74842857D01*
X108970000Y-74700000D01*
X109112857Y-74628571D01*
X109898571Y-74628571D01*
X108898571Y-73271428D02*
X110112857Y-73271428D01*
X110255714Y-73342857D01*
X110327142Y-73414285D01*
X110398571Y-73557142D01*
X110398571Y-73771428D01*
X110327142Y-73914285D01*
X109827142Y-73271428D02*
X109898571Y-73414285D01*
X109898571Y-73700000D01*
X109827142Y-73842857D01*
X109755714Y-73914285D01*
X109612857Y-73985714D01*
X109184285Y-73985714D01*
X109041428Y-73914285D01*
X108970000Y-73842857D01*
X108898571Y-73700000D01*
X108898571Y-73414285D01*
X108970000Y-73271428D01*
X109898571Y-72342857D02*
X109827142Y-72485714D01*
X109684285Y-72557142D01*
X108398571Y-72557142D01*
X109898571Y-71771428D02*
X108898571Y-71771428D01*
X108398571Y-71771428D02*
X108470000Y-71842857D01*
X108541428Y-71771428D01*
X108470000Y-71700000D01*
X108398571Y-71771428D01*
X108541428Y-71771428D01*
X109827142Y-71128571D02*
X109898571Y-70985714D01*
X109898571Y-70700000D01*
X109827142Y-70557142D01*
X109684285Y-70485714D01*
X109612857Y-70485714D01*
X109470000Y-70557142D01*
X109398571Y-70700000D01*
X109398571Y-70914285D01*
X109327142Y-71057142D01*
X109184285Y-71128571D01*
X109112857Y-71128571D01*
X108970000Y-71057142D01*
X108898571Y-70914285D01*
X108898571Y-70700000D01*
X108970000Y-70557142D01*
X109898571Y-69842857D02*
X108398571Y-69842857D01*
X109898571Y-69200000D02*
X109112857Y-69200000D01*
X108970000Y-69271428D01*
X108898571Y-69414285D01*
X108898571Y-69628571D01*
X108970000Y-69771428D01*
X109041428Y-69842857D01*
X105743333Y-101168285D02*
X105743333Y-100215904D01*
X106314761Y-101358761D02*
X104314761Y-100692095D01*
X106314761Y-100025428D01*
X104314761Y-99644476D02*
X104314761Y-98501619D01*
X106314761Y-99073047D02*
X104314761Y-99073047D01*
X104981428Y-98120666D02*
X104981428Y-97358761D01*
X104314761Y-97834952D02*
X106029047Y-97834952D01*
X106219523Y-97739714D01*
X106314761Y-97549238D01*
X106314761Y-97358761D01*
X106314761Y-96692095D02*
X104981428Y-96692095D01*
X104314761Y-96692095D02*
X104410000Y-96787333D01*
X104505238Y-96692095D01*
X104410000Y-96596857D01*
X104314761Y-96692095D01*
X104505238Y-96692095D01*
X104981428Y-95739714D02*
X106314761Y-95739714D01*
X105171904Y-95739714D02*
X105076666Y-95644476D01*
X104981428Y-95454000D01*
X104981428Y-95168285D01*
X105076666Y-94977809D01*
X105267142Y-94882571D01*
X106314761Y-94882571D01*
X104981428Y-94120666D02*
X106314761Y-93644476D01*
X104981428Y-93168285D02*
X106314761Y-93644476D01*
X106790952Y-93834952D01*
X106886190Y-93930190D01*
X106981428Y-94120666D01*
X105171904Y-92120666D02*
X105076666Y-92311142D01*
X104981428Y-92406380D01*
X104790952Y-92501619D01*
X104695714Y-92501619D01*
X104505238Y-92406380D01*
X104410000Y-92311142D01*
X104314761Y-92120666D01*
X104314761Y-91739714D01*
X104410000Y-91549238D01*
X104505238Y-91454000D01*
X104695714Y-91358761D01*
X104790952Y-91358761D01*
X104981428Y-91454000D01*
X105076666Y-91549238D01*
X105171904Y-91739714D01*
X105171904Y-92120666D01*
X105267142Y-92311142D01*
X105362380Y-92406380D01*
X105552857Y-92501619D01*
X105933809Y-92501619D01*
X106124285Y-92406380D01*
X106219523Y-92311142D01*
X106314761Y-92120666D01*
X106314761Y-91739714D01*
X106219523Y-91549238D01*
X106124285Y-91454000D01*
X105933809Y-91358761D01*
X105552857Y-91358761D01*
X105362380Y-91454000D01*
X105267142Y-91549238D01*
X105171904Y-91739714D01*
X104314761Y-89549238D02*
X104314761Y-90501619D01*
X105267142Y-90596857D01*
X105171904Y-90501619D01*
X105076666Y-90311142D01*
X105076666Y-89834952D01*
X105171904Y-89644476D01*
X105267142Y-89549238D01*
X105457619Y-89454000D01*
X105933809Y-89454000D01*
X106124285Y-89549238D01*
X106219523Y-89644476D01*
X106314761Y-89834952D01*
X106314761Y-90311142D01*
X106219523Y-90501619D01*
X106124285Y-90596857D01*
X106314761Y-87073047D02*
X104314761Y-87073047D01*
X104314761Y-86311142D01*
X104410000Y-86120666D01*
X104505238Y-86025428D01*
X104695714Y-85930190D01*
X104981428Y-85930190D01*
X105171904Y-86025428D01*
X105267142Y-86120666D01*
X105362380Y-86311142D01*
X105362380Y-87073047D01*
X106314761Y-85073047D02*
X104981428Y-85073047D01*
X105362380Y-85073047D02*
X105171904Y-84977809D01*
X105076666Y-84882571D01*
X104981428Y-84692095D01*
X104981428Y-84501619D01*
X106314761Y-83549238D02*
X106219523Y-83739714D01*
X106124285Y-83834952D01*
X105933809Y-83930190D01*
X105362380Y-83930190D01*
X105171904Y-83834952D01*
X105076666Y-83739714D01*
X104981428Y-83549238D01*
X104981428Y-83263523D01*
X105076666Y-83073047D01*
X105171904Y-82977809D01*
X105362380Y-82882571D01*
X105933809Y-82882571D01*
X106124285Y-82977809D01*
X106219523Y-83073047D01*
X106314761Y-83263523D01*
X106314761Y-83549238D01*
X104981428Y-81168285D02*
X106600476Y-81168285D01*
X106790952Y-81263523D01*
X106886190Y-81358761D01*
X106981428Y-81549238D01*
X106981428Y-81834952D01*
X106886190Y-82025428D01*
X106219523Y-81168285D02*
X106314761Y-81358761D01*
X106314761Y-81739714D01*
X106219523Y-81930190D01*
X106124285Y-82025428D01*
X105933809Y-82120666D01*
X105362380Y-82120666D01*
X105171904Y-82025428D01*
X105076666Y-81930190D01*
X104981428Y-81739714D01*
X104981428Y-81358761D01*
X105076666Y-81168285D01*
X106314761Y-80215904D02*
X104981428Y-80215904D01*
X105362380Y-80215904D02*
X105171904Y-80120666D01*
X105076666Y-80025428D01*
X104981428Y-79834952D01*
X104981428Y-79644476D01*
X106314761Y-78120666D02*
X105267142Y-78120666D01*
X105076666Y-78215904D01*
X104981428Y-78406380D01*
X104981428Y-78787333D01*
X105076666Y-78977809D01*
X106219523Y-78120666D02*
X106314761Y-78311142D01*
X106314761Y-78787333D01*
X106219523Y-78977809D01*
X106029047Y-79073047D01*
X105838571Y-79073047D01*
X105648095Y-78977809D01*
X105552857Y-78787333D01*
X105552857Y-78311142D01*
X105457619Y-78120666D01*
X106314761Y-77168285D02*
X104981428Y-77168285D01*
X105171904Y-77168285D02*
X105076666Y-77073047D01*
X104981428Y-76882571D01*
X104981428Y-76596857D01*
X105076666Y-76406380D01*
X105267142Y-76311142D01*
X106314761Y-76311142D01*
X105267142Y-76311142D02*
X105076666Y-76215904D01*
X104981428Y-76025428D01*
X104981428Y-75739714D01*
X105076666Y-75549238D01*
X105267142Y-75454000D01*
X106314761Y-75454000D01*
X106314761Y-74501619D02*
X104981428Y-74501619D01*
X105171904Y-74501619D02*
X105076666Y-74406380D01*
X104981428Y-74215904D01*
X104981428Y-73930190D01*
X105076666Y-73739714D01*
X105267142Y-73644476D01*
X106314761Y-73644476D01*
X105267142Y-73644476D02*
X105076666Y-73549238D01*
X104981428Y-73358761D01*
X104981428Y-73073047D01*
X105076666Y-72882571D01*
X105267142Y-72787333D01*
X106314761Y-72787333D01*
X106219523Y-71073047D02*
X106314761Y-71263523D01*
X106314761Y-71644476D01*
X106219523Y-71834952D01*
X106029047Y-71930190D01*
X105267142Y-71930190D01*
X105076666Y-71834952D01*
X104981428Y-71644476D01*
X104981428Y-71263523D01*
X105076666Y-71073047D01*
X105267142Y-70977809D01*
X105457619Y-70977809D01*
X105648095Y-71930190D01*
X106314761Y-70120666D02*
X104981428Y-70120666D01*
X105362380Y-70120666D02*
X105171904Y-70025428D01*
X105076666Y-69930190D01*
X104981428Y-69739714D01*
X104981428Y-69549238D01*
X104314761Y-67358761D02*
X105933809Y-67358761D01*
X106124285Y-67263523D01*
X106219523Y-67168285D01*
X106314761Y-66977809D01*
X106314761Y-66596857D01*
X106219523Y-66406380D01*
X106124285Y-66311142D01*
X105933809Y-66215904D01*
X104314761Y-66215904D01*
X104981428Y-65263523D02*
X106314761Y-65263523D01*
X105171904Y-65263523D02*
X105076666Y-65168285D01*
X104981428Y-64977809D01*
X104981428Y-64692095D01*
X105076666Y-64501619D01*
X105267142Y-64406380D01*
X106314761Y-64406380D01*
X106314761Y-63168285D02*
X106219523Y-63358761D01*
X106124285Y-63454000D01*
X105933809Y-63549238D01*
X105362380Y-63549238D01*
X105171904Y-63454000D01*
X105076666Y-63358761D01*
X104981428Y-63168285D01*
X104981428Y-62882571D01*
X105076666Y-62692095D01*
X105171904Y-62596857D01*
X105362380Y-62501619D01*
X105933809Y-62501619D01*
X106124285Y-62596857D01*
X106219523Y-62692095D01*
X106314761Y-62882571D01*
X106314761Y-63168285D01*
X106219523Y-60215904D02*
X106314761Y-59930190D01*
X106314761Y-59454000D01*
X106219523Y-59263523D01*
X106124285Y-59168285D01*
X105933809Y-59073047D01*
X105743333Y-59073047D01*
X105552857Y-59168285D01*
X105457619Y-59263523D01*
X105362380Y-59454000D01*
X105267142Y-59834952D01*
X105171904Y-60025428D01*
X105076666Y-60120666D01*
X104886190Y-60215904D01*
X104695714Y-60215904D01*
X104505238Y-60120666D01*
X104410000Y-60025428D01*
X104314761Y-59834952D01*
X104314761Y-59358761D01*
X104410000Y-59073047D01*
X106314761Y-58215904D02*
X104314761Y-58215904D01*
X106314761Y-57358761D02*
X105267142Y-57358761D01*
X105076666Y-57454000D01*
X104981428Y-57644476D01*
X104981428Y-57930190D01*
X105076666Y-58120666D01*
X105171904Y-58215904D01*
X106314761Y-56406380D02*
X104981428Y-56406380D01*
X104314761Y-56406380D02*
X104410000Y-56501619D01*
X104505238Y-56406380D01*
X104410000Y-56311142D01*
X104314761Y-56406380D01*
X104505238Y-56406380D01*
X106219523Y-54692095D02*
X106314761Y-54882571D01*
X106314761Y-55263523D01*
X106219523Y-55454000D01*
X106029047Y-55549238D01*
X105267142Y-55549238D01*
X105076666Y-55454000D01*
X104981428Y-55263523D01*
X104981428Y-54882571D01*
X105076666Y-54692095D01*
X105267142Y-54596857D01*
X105457619Y-54596857D01*
X105648095Y-55549238D01*
X106314761Y-53454000D02*
X106219523Y-53644476D01*
X106029047Y-53739714D01*
X104314761Y-53739714D01*
X106314761Y-51834952D02*
X104314761Y-51834952D01*
X106219523Y-51834952D02*
X106314761Y-52025428D01*
X106314761Y-52406380D01*
X106219523Y-52596857D01*
X106124285Y-52692095D01*
X105933809Y-52787333D01*
X105362380Y-52787333D01*
X105171904Y-52692095D01*
X105076666Y-52596857D01*
X104981428Y-52406380D01*
X104981428Y-52025428D01*
X105076666Y-51834952D01*
X123523333Y-81549142D02*
X123523333Y-80596761D01*
X124094761Y-81739619D02*
X122094761Y-81072952D01*
X124094761Y-80406285D01*
X122094761Y-80025333D02*
X122094761Y-78882476D01*
X124094761Y-79453904D02*
X122094761Y-79453904D01*
X122761428Y-78501523D02*
X122761428Y-77739619D01*
X122094761Y-78215809D02*
X123809047Y-78215809D01*
X123999523Y-78120571D01*
X124094761Y-77930095D01*
X124094761Y-77739619D01*
X124094761Y-77072952D02*
X122761428Y-77072952D01*
X122094761Y-77072952D02*
X122190000Y-77168190D01*
X122285238Y-77072952D01*
X122190000Y-76977714D01*
X122094761Y-77072952D01*
X122285238Y-77072952D01*
X122761428Y-76120571D02*
X124094761Y-76120571D01*
X122951904Y-76120571D02*
X122856666Y-76025333D01*
X122761428Y-75834857D01*
X122761428Y-75549142D01*
X122856666Y-75358666D01*
X123047142Y-75263428D01*
X124094761Y-75263428D01*
X122761428Y-74501523D02*
X124094761Y-74025333D01*
X122761428Y-73549142D02*
X124094761Y-74025333D01*
X124570952Y-74215809D01*
X124666190Y-74311047D01*
X124761428Y-74501523D01*
X122951904Y-72501523D02*
X122856666Y-72692000D01*
X122761428Y-72787238D01*
X122570952Y-72882476D01*
X122475714Y-72882476D01*
X122285238Y-72787238D01*
X122190000Y-72692000D01*
X122094761Y-72501523D01*
X122094761Y-72120571D01*
X122190000Y-71930095D01*
X122285238Y-71834857D01*
X122475714Y-71739619D01*
X122570952Y-71739619D01*
X122761428Y-71834857D01*
X122856666Y-71930095D01*
X122951904Y-72120571D01*
X122951904Y-72501523D01*
X123047142Y-72692000D01*
X123142380Y-72787238D01*
X123332857Y-72882476D01*
X123713809Y-72882476D01*
X123904285Y-72787238D01*
X123999523Y-72692000D01*
X124094761Y-72501523D01*
X124094761Y-72120571D01*
X123999523Y-71930095D01*
X123904285Y-71834857D01*
X123713809Y-71739619D01*
X123332857Y-71739619D01*
X123142380Y-71834857D01*
X123047142Y-71930095D01*
X122951904Y-72120571D01*
X122094761Y-69930095D02*
X122094761Y-70882476D01*
X123047142Y-70977714D01*
X122951904Y-70882476D01*
X122856666Y-70692000D01*
X122856666Y-70215809D01*
X122951904Y-70025333D01*
X123047142Y-69930095D01*
X123237619Y-69834857D01*
X123713809Y-69834857D01*
X123904285Y-69930095D01*
X123999523Y-70025333D01*
X124094761Y-70215809D01*
X124094761Y-70692000D01*
X123999523Y-70882476D01*
X123904285Y-70977714D01*
X161178761Y-98328571D02*
X159178761Y-98328571D01*
X159178761Y-97566666D01*
X159274000Y-97376190D01*
X159369238Y-97280952D01*
X159559714Y-97185714D01*
X159845428Y-97185714D01*
X160035904Y-97280952D01*
X160131142Y-97376190D01*
X160226380Y-97566666D01*
X160226380Y-98328571D01*
X161178761Y-96328571D02*
X159845428Y-96328571D01*
X160226380Y-96328571D02*
X160035904Y-96233333D01*
X159940666Y-96138095D01*
X159845428Y-95947619D01*
X159845428Y-95757142D01*
X161178761Y-94804761D02*
X161083523Y-94995238D01*
X160988285Y-95090476D01*
X160797809Y-95185714D01*
X160226380Y-95185714D01*
X160035904Y-95090476D01*
X159940666Y-94995238D01*
X159845428Y-94804761D01*
X159845428Y-94519047D01*
X159940666Y-94328571D01*
X160035904Y-94233333D01*
X160226380Y-94138095D01*
X160797809Y-94138095D01*
X160988285Y-94233333D01*
X161083523Y-94328571D01*
X161178761Y-94519047D01*
X161178761Y-94804761D01*
X159845428Y-92423809D02*
X161464476Y-92423809D01*
X161654952Y-92519047D01*
X161750190Y-92614285D01*
X161845428Y-92804761D01*
X161845428Y-93090476D01*
X161750190Y-93280952D01*
X161083523Y-92423809D02*
X161178761Y-92614285D01*
X161178761Y-92995238D01*
X161083523Y-93185714D01*
X160988285Y-93280952D01*
X160797809Y-93376190D01*
X160226380Y-93376190D01*
X160035904Y-93280952D01*
X159940666Y-93185714D01*
X159845428Y-92995238D01*
X159845428Y-92614285D01*
X159940666Y-92423809D01*
X161178761Y-91471428D02*
X159845428Y-91471428D01*
X160226380Y-91471428D02*
X160035904Y-91376190D01*
X159940666Y-91280952D01*
X159845428Y-91090476D01*
X159845428Y-90900000D01*
X161178761Y-89376190D02*
X160131142Y-89376190D01*
X159940666Y-89471428D01*
X159845428Y-89661904D01*
X159845428Y-90042857D01*
X159940666Y-90233333D01*
X161083523Y-89376190D02*
X161178761Y-89566666D01*
X161178761Y-90042857D01*
X161083523Y-90233333D01*
X160893047Y-90328571D01*
X160702571Y-90328571D01*
X160512095Y-90233333D01*
X160416857Y-90042857D01*
X160416857Y-89566666D01*
X160321619Y-89376190D01*
X161178761Y-88423809D02*
X159845428Y-88423809D01*
X160035904Y-88423809D02*
X159940666Y-88328571D01*
X159845428Y-88138095D01*
X159845428Y-87852380D01*
X159940666Y-87661904D01*
X160131142Y-87566666D01*
X161178761Y-87566666D01*
X160131142Y-87566666D02*
X159940666Y-87471428D01*
X159845428Y-87280952D01*
X159845428Y-86995238D01*
X159940666Y-86804761D01*
X160131142Y-86709523D01*
X161178761Y-86709523D01*
X161178761Y-85757142D02*
X159845428Y-85757142D01*
X160035904Y-85757142D02*
X159940666Y-85661904D01*
X159845428Y-85471428D01*
X159845428Y-85185714D01*
X159940666Y-84995238D01*
X160131142Y-84900000D01*
X161178761Y-84900000D01*
X160131142Y-84900000D02*
X159940666Y-84804761D01*
X159845428Y-84614285D01*
X159845428Y-84328571D01*
X159940666Y-84138095D01*
X160131142Y-84042857D01*
X161178761Y-84042857D01*
X161178761Y-83090476D02*
X159845428Y-83090476D01*
X159178761Y-83090476D02*
X159274000Y-83185714D01*
X159369238Y-83090476D01*
X159274000Y-82995238D01*
X159178761Y-83090476D01*
X159369238Y-83090476D01*
X159845428Y-82138095D02*
X161178761Y-82138095D01*
X160035904Y-82138095D02*
X159940666Y-82042857D01*
X159845428Y-81852380D01*
X159845428Y-81566666D01*
X159940666Y-81376190D01*
X160131142Y-81280952D01*
X161178761Y-81280952D01*
X159845428Y-79471428D02*
X161464476Y-79471428D01*
X161654952Y-79566666D01*
X161750190Y-79661904D01*
X161845428Y-79852380D01*
X161845428Y-80138095D01*
X161750190Y-80328571D01*
X161083523Y-79471428D02*
X161178761Y-79661904D01*
X161178761Y-80042857D01*
X161083523Y-80233333D01*
X160988285Y-80328571D01*
X160797809Y-80423809D01*
X160226380Y-80423809D01*
X160035904Y-80328571D01*
X159940666Y-80233333D01*
X159845428Y-80042857D01*
X159845428Y-79661904D01*
X159940666Y-79471428D01*
X153273142Y-86456642D02*
X153273142Y-85789976D01*
X154320761Y-85504261D02*
X154320761Y-86456642D01*
X152320761Y-86456642D01*
X152320761Y-85504261D01*
X154320761Y-84647119D02*
X152987428Y-84647119D01*
X153368380Y-84647119D02*
X153177904Y-84551880D01*
X153082666Y-84456642D01*
X152987428Y-84266166D01*
X152987428Y-84075690D01*
X154320761Y-83409023D02*
X152987428Y-83409023D01*
X153368380Y-83409023D02*
X153177904Y-83313785D01*
X153082666Y-83218547D01*
X152987428Y-83028071D01*
X152987428Y-82837595D01*
X154320761Y-81885214D02*
X154225523Y-82075690D01*
X154130285Y-82170928D01*
X153939809Y-82266166D01*
X153368380Y-82266166D01*
X153177904Y-82170928D01*
X153082666Y-82075690D01*
X152987428Y-81885214D01*
X152987428Y-81599500D01*
X153082666Y-81409023D01*
X153177904Y-81313785D01*
X153368380Y-81218547D01*
X153939809Y-81218547D01*
X154130285Y-81313785D01*
X154225523Y-81409023D01*
X154320761Y-81599500D01*
X154320761Y-81885214D01*
X154320761Y-80361404D02*
X152987428Y-80361404D01*
X153368380Y-80361404D02*
X153177904Y-80266166D01*
X153082666Y-80170928D01*
X152987428Y-79980452D01*
X152987428Y-79789976D01*
X147208761Y-93345500D02*
X145208761Y-93345500D01*
X146161142Y-93345500D02*
X146161142Y-92202642D01*
X147208761Y-92202642D02*
X145208761Y-92202642D01*
X147113523Y-90488357D02*
X147208761Y-90678833D01*
X147208761Y-91059785D01*
X147113523Y-91250261D01*
X146923047Y-91345500D01*
X146161142Y-91345500D01*
X145970666Y-91250261D01*
X145875428Y-91059785D01*
X145875428Y-90678833D01*
X145970666Y-90488357D01*
X146161142Y-90393119D01*
X146351619Y-90393119D01*
X146542095Y-91345500D01*
X147208761Y-88678833D02*
X146161142Y-88678833D01*
X145970666Y-88774071D01*
X145875428Y-88964547D01*
X145875428Y-89345500D01*
X145970666Y-89535976D01*
X147113523Y-88678833D02*
X147208761Y-88869309D01*
X147208761Y-89345500D01*
X147113523Y-89535976D01*
X146923047Y-89631214D01*
X146732571Y-89631214D01*
X146542095Y-89535976D01*
X146446857Y-89345500D01*
X146446857Y-88869309D01*
X146351619Y-88678833D01*
X147208761Y-87726452D02*
X145875428Y-87726452D01*
X146256380Y-87726452D02*
X146065904Y-87631214D01*
X145970666Y-87535976D01*
X145875428Y-87345500D01*
X145875428Y-87155023D01*
X145875428Y-86774071D02*
X145875428Y-86012166D01*
X145208761Y-86488357D02*
X146923047Y-86488357D01*
X147113523Y-86393119D01*
X147208761Y-86202642D01*
X147208761Y-86012166D01*
X147208761Y-85345500D02*
X145208761Y-85345500D01*
X145970666Y-85345500D02*
X145875428Y-85155023D01*
X145875428Y-84774071D01*
X145970666Y-84583595D01*
X146065904Y-84488357D01*
X146256380Y-84393119D01*
X146827809Y-84393119D01*
X147018285Y-84488357D01*
X147113523Y-84583595D01*
X147208761Y-84774071D01*
X147208761Y-85155023D01*
X147113523Y-85345500D01*
X147113523Y-82774071D02*
X147208761Y-82964547D01*
X147208761Y-83345500D01*
X147113523Y-83535976D01*
X146923047Y-83631214D01*
X146161142Y-83631214D01*
X145970666Y-83535976D01*
X145875428Y-83345500D01*
X145875428Y-82964547D01*
X145970666Y-82774071D01*
X146161142Y-82678833D01*
X146351619Y-82678833D01*
X146542095Y-83631214D01*
X147208761Y-80964547D02*
X146161142Y-80964547D01*
X145970666Y-81059785D01*
X145875428Y-81250261D01*
X145875428Y-81631214D01*
X145970666Y-81821690D01*
X147113523Y-80964547D02*
X147208761Y-81155023D01*
X147208761Y-81631214D01*
X147113523Y-81821690D01*
X146923047Y-81916928D01*
X146732571Y-81916928D01*
X146542095Y-81821690D01*
X146446857Y-81631214D01*
X146446857Y-81155023D01*
X146351619Y-80964547D01*
X145875428Y-80297880D02*
X145875428Y-79535976D01*
X145208761Y-80012166D02*
X146923047Y-80012166D01*
X147113523Y-79916928D01*
X147208761Y-79726452D01*
X147208761Y-79535976D01*
D11*
X119354600Y-94284800D02*
G75*
G02X115595400Y-94335600I-1879600J-25400D01*
G01*
X115570000Y-99060000D02*
X115570000Y-91440000D01*
X111760000Y-91440000D02*
X119380000Y-99060000D01*
X111760000Y-91440000D02*
X111760000Y-99060000D01*
X119380000Y-91440000D02*
X111760000Y-91440000D01*
X119380000Y-99060000D02*
X119380000Y-91440000D01*
X116840000Y-99060000D02*
X119380000Y-99060000D01*
X111760000Y-99060000D02*
X116840000Y-99060000D01*
D12*
X131704000Y-98455241D02*
X132334000Y-98455241D01*
X132019000Y-98770241D02*
X132019000Y-98140241D01*
X133456000Y-92029000D02*
X134260000Y-92029000D01*
X133225000Y-92069000D02*
X134491000Y-92069000D01*
X133056000Y-92109000D02*
X134660000Y-92109000D01*
X132918000Y-92149000D02*
X134798000Y-92149000D01*
X132799000Y-92189000D02*
X134917000Y-92189000D01*
X132693000Y-92229000D02*
X135023000Y-92229000D01*
X132596000Y-92269000D02*
X135120000Y-92269000D01*
X132508000Y-92309000D02*
X135208000Y-92309000D01*
X132426000Y-92349000D02*
X135290000Y-92349000D01*
X132349000Y-92389000D02*
X135367000Y-92389000D01*
X132277000Y-92429000D02*
X135439000Y-92429000D01*
X132208000Y-92469000D02*
X135508000Y-92469000D01*
X132144000Y-92509000D02*
X135572000Y-92509000D01*
X132082000Y-92549000D02*
X135634000Y-92549000D01*
X132024000Y-92589000D02*
X135692000Y-92589000D01*
X131968000Y-92629000D02*
X135748000Y-92629000D01*
X131914000Y-92669000D02*
X135802000Y-92669000D01*
X131863000Y-92709000D02*
X135853000Y-92709000D01*
X131814000Y-92749000D02*
X135902000Y-92749000D01*
X131766000Y-92789000D02*
X135950000Y-92789000D01*
X131721000Y-92829000D02*
X135995000Y-92829000D01*
X131676000Y-92869000D02*
X136040000Y-92869000D01*
X131634000Y-92909000D02*
X136082000Y-92909000D01*
X131593000Y-92949000D02*
X136123000Y-92949000D01*
X134898000Y-92989000D02*
X136163000Y-92989000D01*
X131553000Y-92989000D02*
X132818000Y-92989000D01*
X134898000Y-93029000D02*
X136201000Y-93029000D01*
X131515000Y-93029000D02*
X132818000Y-93029000D01*
X134898000Y-93069000D02*
X136238000Y-93069000D01*
X131478000Y-93069000D02*
X132818000Y-93069000D01*
X134898000Y-93109000D02*
X136274000Y-93109000D01*
X131442000Y-93109000D02*
X132818000Y-93109000D01*
X134898000Y-93149000D02*
X136308000Y-93149000D01*
X131408000Y-93149000D02*
X132818000Y-93149000D01*
X134898000Y-93189000D02*
X136342000Y-93189000D01*
X131374000Y-93189000D02*
X132818000Y-93189000D01*
X134898000Y-93229000D02*
X136374000Y-93229000D01*
X131342000Y-93229000D02*
X132818000Y-93229000D01*
X134898000Y-93269000D02*
X136406000Y-93269000D01*
X131310000Y-93269000D02*
X132818000Y-93269000D01*
X134898000Y-93309000D02*
X136436000Y-93309000D01*
X131280000Y-93309000D02*
X132818000Y-93309000D01*
X134898000Y-93349000D02*
X136465000Y-93349000D01*
X131251000Y-93349000D02*
X132818000Y-93349000D01*
X134898000Y-93389000D02*
X136494000Y-93389000D01*
X131222000Y-93389000D02*
X132818000Y-93389000D01*
X134898000Y-93429000D02*
X136522000Y-93429000D01*
X131194000Y-93429000D02*
X132818000Y-93429000D01*
X134898000Y-93469000D02*
X136548000Y-93469000D01*
X131168000Y-93469000D02*
X132818000Y-93469000D01*
X134898000Y-93509000D02*
X136574000Y-93509000D01*
X131142000Y-93509000D02*
X132818000Y-93509000D01*
X134898000Y-93549000D02*
X136600000Y-93549000D01*
X131116000Y-93549000D02*
X132818000Y-93549000D01*
X134898000Y-93589000D02*
X136624000Y-93589000D01*
X131092000Y-93589000D02*
X132818000Y-93589000D01*
X134898000Y-93629000D02*
X136648000Y-93629000D01*
X131068000Y-93629000D02*
X132818000Y-93629000D01*
X134898000Y-93669000D02*
X136670000Y-93669000D01*
X131046000Y-93669000D02*
X132818000Y-93669000D01*
X134898000Y-93709000D02*
X136692000Y-93709000D01*
X131024000Y-93709000D02*
X132818000Y-93709000D01*
X134898000Y-93749000D02*
X136714000Y-93749000D01*
X131002000Y-93749000D02*
X132818000Y-93749000D01*
X134898000Y-93789000D02*
X136734000Y-93789000D01*
X130982000Y-93789000D02*
X132818000Y-93789000D01*
X134898000Y-93829000D02*
X136754000Y-93829000D01*
X130962000Y-93829000D02*
X132818000Y-93829000D01*
X134898000Y-93869000D02*
X136774000Y-93869000D01*
X130942000Y-93869000D02*
X132818000Y-93869000D01*
X134898000Y-93909000D02*
X136792000Y-93909000D01*
X130924000Y-93909000D02*
X132818000Y-93909000D01*
X134898000Y-93949000D02*
X136810000Y-93949000D01*
X130906000Y-93949000D02*
X132818000Y-93949000D01*
X134898000Y-93989000D02*
X136828000Y-93989000D01*
X130888000Y-93989000D02*
X132818000Y-93989000D01*
X134898000Y-94029000D02*
X136844000Y-94029000D01*
X130872000Y-94029000D02*
X132818000Y-94029000D01*
X134898000Y-94069000D02*
X136860000Y-94069000D01*
X130856000Y-94069000D02*
X132818000Y-94069000D01*
X134898000Y-94109000D02*
X136876000Y-94109000D01*
X130840000Y-94109000D02*
X132818000Y-94109000D01*
X134898000Y-94149000D02*
X136891000Y-94149000D01*
X130825000Y-94149000D02*
X132818000Y-94149000D01*
X134898000Y-94189000D02*
X136905000Y-94189000D01*
X130811000Y-94189000D02*
X132818000Y-94189000D01*
X134898000Y-94229000D02*
X136919000Y-94229000D01*
X130797000Y-94229000D02*
X132818000Y-94229000D01*
X134898000Y-94269000D02*
X136932000Y-94269000D01*
X130784000Y-94269000D02*
X132818000Y-94269000D01*
X134898000Y-94309000D02*
X136944000Y-94309000D01*
X130772000Y-94309000D02*
X132818000Y-94309000D01*
X134898000Y-94349000D02*
X136956000Y-94349000D01*
X130760000Y-94349000D02*
X132818000Y-94349000D01*
X134898000Y-94389000D02*
X136968000Y-94389000D01*
X130748000Y-94389000D02*
X132818000Y-94389000D01*
X134898000Y-94429000D02*
X136979000Y-94429000D01*
X130737000Y-94429000D02*
X132818000Y-94429000D01*
X134898000Y-94469000D02*
X136989000Y-94469000D01*
X130727000Y-94469000D02*
X132818000Y-94469000D01*
X134898000Y-94509000D02*
X136999000Y-94509000D01*
X130717000Y-94509000D02*
X132818000Y-94509000D01*
X134898000Y-94549000D02*
X137008000Y-94549000D01*
X130708000Y-94549000D02*
X132818000Y-94549000D01*
X134898000Y-94590000D02*
X137017000Y-94590000D01*
X130699000Y-94590000D02*
X132818000Y-94590000D01*
X134898000Y-94630000D02*
X137025000Y-94630000D01*
X130691000Y-94630000D02*
X132818000Y-94630000D01*
X134898000Y-94670000D02*
X137033000Y-94670000D01*
X130683000Y-94670000D02*
X132818000Y-94670000D01*
X134898000Y-94710000D02*
X137040000Y-94710000D01*
X130676000Y-94710000D02*
X132818000Y-94710000D01*
X134898000Y-94750000D02*
X137047000Y-94750000D01*
X130669000Y-94750000D02*
X132818000Y-94750000D01*
X134898000Y-94790000D02*
X137053000Y-94790000D01*
X130663000Y-94790000D02*
X132818000Y-94790000D01*
X134898000Y-94830000D02*
X137059000Y-94830000D01*
X130657000Y-94830000D02*
X132818000Y-94830000D01*
X134898000Y-94870000D02*
X137064000Y-94870000D01*
X130652000Y-94870000D02*
X132818000Y-94870000D01*
X134898000Y-94910000D02*
X137069000Y-94910000D01*
X130647000Y-94910000D02*
X132818000Y-94910000D01*
X134898000Y-94950000D02*
X137073000Y-94950000D01*
X130643000Y-94950000D02*
X132818000Y-94950000D01*
X134898000Y-94990000D02*
X137076000Y-94990000D01*
X130640000Y-94990000D02*
X132818000Y-94990000D01*
X134898000Y-95030000D02*
X137080000Y-95030000D01*
X130636000Y-95030000D02*
X132818000Y-95030000D01*
X130634000Y-95070000D02*
X137082000Y-95070000D01*
X130631000Y-95110000D02*
X137085000Y-95110000D01*
X130630000Y-95150000D02*
X137086000Y-95150000D01*
X130628000Y-95190000D02*
X137088000Y-95190000D01*
X130628000Y-95230000D02*
X137088000Y-95230000D01*
X130628000Y-95270000D02*
X137088000Y-95270000D01*
X137128000Y-95270000D02*
G75*
G03X137128000Y-95270000I-3270000J0D01*
G01*
X125924000Y-73296000D02*
X125924000Y-74946000D01*
X136204000Y-73296000D02*
X125924000Y-73296000D01*
X136204000Y-78596000D02*
X136204000Y-73296000D01*
X125924000Y-78596000D02*
X136204000Y-78596000D01*
X125924000Y-76946000D02*
X125924000Y-78596000D01*
X125924000Y-74946000D02*
G75*
G02X125924000Y-76946000I0J-1000000D01*
G01*
X127738000Y-87122000D02*
X126968000Y-87122000D01*
X119658000Y-87122000D02*
X120428000Y-87122000D01*
X126968000Y-85752000D02*
X120428000Y-85752000D01*
X126968000Y-88492000D02*
X126968000Y-85752000D01*
X120428000Y-88492000D02*
X126968000Y-88492000D01*
X120428000Y-85752000D02*
X120428000Y-88492000D01*
X139700000Y-65508000D02*
X139700000Y-64738000D01*
X139700000Y-57428000D02*
X139700000Y-58198000D01*
X141070000Y-64738000D02*
X141070000Y-58198000D01*
X138330000Y-64738000D02*
X141070000Y-64738000D01*
X138330000Y-58198000D02*
X138330000Y-64738000D01*
X141070000Y-58198000D02*
X138330000Y-58198000D01*
X142748000Y-65508000D02*
X142748000Y-64738000D01*
X142748000Y-57428000D02*
X142748000Y-58198000D01*
X144118000Y-64738000D02*
X144118000Y-58198000D01*
X141378000Y-64738000D02*
X144118000Y-64738000D01*
X141378000Y-58198000D02*
X141378000Y-64738000D01*
X144118000Y-58198000D02*
X141378000Y-58198000D01*
X146558000Y-65508000D02*
X146558000Y-64738000D01*
X146558000Y-57428000D02*
X146558000Y-58198000D01*
X147928000Y-64738000D02*
X147928000Y-58198000D01*
X145188000Y-64738000D02*
X147928000Y-64738000D01*
X145188000Y-58198000D02*
X145188000Y-64738000D01*
X147928000Y-58198000D02*
X145188000Y-58198000D01*
X136419000Y-83292000D02*
X133329000Y-83292000D01*
X137374000Y-85852000D02*
G75*
G03X137374000Y-85852000I-2500000J0D01*
G01*
X134874462Y-88842000D02*
G75*
G02X133329170Y-83292000I-462J2990000D01*
G01*
X134873538Y-88842000D02*
G75*
G03X136418830Y-83292000I462J2990000D01*
G01*
X145013000Y-78506000D02*
X148103000Y-78506000D01*
X149058000Y-75946000D02*
G75*
G03X149058000Y-75946000I-2500000J0D01*
G01*
X146557538Y-72956000D02*
G75*
G02X148102830Y-78506000I462J-2990000D01*
G01*
X146558462Y-72956000D02*
G75*
G03X145013170Y-78506000I-462J-2990000D01*
G01*
X152125000Y-78506000D02*
X155215000Y-78506000D01*
X156170000Y-75946000D02*
G75*
G03X156170000Y-75946000I-2500000J0D01*
G01*
X153669538Y-72956000D02*
G75*
G02X155214830Y-78506000I462J-2990000D01*
G01*
X153670462Y-72956000D02*
G75*
G03X152125170Y-78506000I-462J-2990000D01*
G01*
X159237000Y-78506000D02*
X162327000Y-78506000D01*
X163282000Y-75946000D02*
G75*
G03X163282000Y-75946000I-2500000J0D01*
G01*
X160781538Y-72956000D02*
G75*
G02X162326830Y-78506000I462J-2990000D01*
G01*
X160782462Y-72956000D02*
G75*
G03X159237170Y-78506000I-462J-2990000D01*
G01*
D10*
X129815142Y-95436666D02*
X129862761Y-95484285D01*
X129910380Y-95627142D01*
X129910380Y-95722380D01*
X129862761Y-95865238D01*
X129767523Y-95960476D01*
X129672285Y-96008095D01*
X129481809Y-96055714D01*
X129338952Y-96055714D01*
X129148476Y-96008095D01*
X129053238Y-95960476D01*
X128958000Y-95865238D01*
X128910380Y-95722380D01*
X128910380Y-95627142D01*
X128958000Y-95484285D01*
X129005619Y-95436666D01*
X129910380Y-94484285D02*
X129910380Y-95055714D01*
X129910380Y-94770000D02*
X128910380Y-94770000D01*
X129053238Y-94865238D01*
X129148476Y-94960476D01*
X129196095Y-95055714D01*
X127976380Y-76453904D02*
X128785904Y-76453904D01*
X128881142Y-76406285D01*
X128928761Y-76358666D01*
X128976380Y-76263428D01*
X128976380Y-76072952D01*
X128928761Y-75977714D01*
X128881142Y-75930095D01*
X128785904Y-75882476D01*
X127976380Y-75882476D01*
X128976380Y-74882476D02*
X128976380Y-75453904D01*
X128976380Y-75168190D02*
X127976380Y-75168190D01*
X128119238Y-75263428D01*
X128214476Y-75358666D01*
X128262095Y-75453904D01*
X123531333Y-85204380D02*
X123198000Y-84728190D01*
X122959904Y-85204380D02*
X122959904Y-84204380D01*
X123340857Y-84204380D01*
X123436095Y-84252000D01*
X123483714Y-84299619D01*
X123531333Y-84394857D01*
X123531333Y-84537714D01*
X123483714Y-84632952D01*
X123436095Y-84680571D01*
X123340857Y-84728190D01*
X122959904Y-84728190D01*
X124388476Y-84537714D02*
X124388476Y-85204380D01*
X124150380Y-84156761D02*
X123912285Y-84871047D01*
X124531333Y-84871047D01*
X140152380Y-61634666D02*
X139676190Y-61968000D01*
X140152380Y-62206095D02*
X139152380Y-62206095D01*
X139152380Y-61825142D01*
X139200000Y-61729904D01*
X139247619Y-61682285D01*
X139342857Y-61634666D01*
X139485714Y-61634666D01*
X139580952Y-61682285D01*
X139628571Y-61729904D01*
X139676190Y-61825142D01*
X139676190Y-62206095D01*
X139152380Y-61301333D02*
X139152380Y-60682285D01*
X139533333Y-61015619D01*
X139533333Y-60872761D01*
X139580952Y-60777523D01*
X139628571Y-60729904D01*
X139723809Y-60682285D01*
X139961904Y-60682285D01*
X140057142Y-60729904D01*
X140104761Y-60777523D01*
X140152380Y-60872761D01*
X140152380Y-61158476D01*
X140104761Y-61253714D01*
X140057142Y-61301333D01*
X143200380Y-61634666D02*
X142724190Y-61968000D01*
X143200380Y-62206095D02*
X142200380Y-62206095D01*
X142200380Y-61825142D01*
X142248000Y-61729904D01*
X142295619Y-61682285D01*
X142390857Y-61634666D01*
X142533714Y-61634666D01*
X142628952Y-61682285D01*
X142676571Y-61729904D01*
X142724190Y-61825142D01*
X142724190Y-62206095D01*
X142295619Y-61253714D02*
X142248000Y-61206095D01*
X142200380Y-61110857D01*
X142200380Y-60872761D01*
X142248000Y-60777523D01*
X142295619Y-60729904D01*
X142390857Y-60682285D01*
X142486095Y-60682285D01*
X142628952Y-60729904D01*
X143200380Y-61301333D01*
X143200380Y-60682285D01*
X147010380Y-61634666D02*
X146534190Y-61968000D01*
X147010380Y-62206095D02*
X146010380Y-62206095D01*
X146010380Y-61825142D01*
X146058000Y-61729904D01*
X146105619Y-61682285D01*
X146200857Y-61634666D01*
X146343714Y-61634666D01*
X146438952Y-61682285D01*
X146486571Y-61729904D01*
X146534190Y-61825142D01*
X146534190Y-62206095D01*
X147010380Y-60682285D02*
X147010380Y-61253714D01*
X147010380Y-60968000D02*
X146010380Y-60968000D01*
X146153238Y-61063238D01*
X146248476Y-61158476D01*
X146296095Y-61253714D01*
X135326380Y-90908095D02*
X134326380Y-90908095D01*
X134326380Y-90670000D01*
X134374000Y-90527142D01*
X134469238Y-90431904D01*
X134564476Y-90384285D01*
X134754952Y-90336666D01*
X134897809Y-90336666D01*
X135088285Y-90384285D01*
X135183523Y-90431904D01*
X135278761Y-90527142D01*
X135326380Y-90670000D01*
X135326380Y-90908095D01*
X134659714Y-89479523D02*
X135326380Y-89479523D01*
X134278761Y-89717619D02*
X134993047Y-89955714D01*
X134993047Y-89336666D01*
X147010380Y-72112095D02*
X146010380Y-72112095D01*
X146010380Y-71874000D01*
X146058000Y-71731142D01*
X146153238Y-71635904D01*
X146248476Y-71588285D01*
X146438952Y-71540666D01*
X146581809Y-71540666D01*
X146772285Y-71588285D01*
X146867523Y-71635904D01*
X146962761Y-71731142D01*
X147010380Y-71874000D01*
X147010380Y-72112095D01*
X146010380Y-71207333D02*
X146010380Y-70588285D01*
X146391333Y-70921619D01*
X146391333Y-70778761D01*
X146438952Y-70683523D01*
X146486571Y-70635904D01*
X146581809Y-70588285D01*
X146819904Y-70588285D01*
X146915142Y-70635904D01*
X146962761Y-70683523D01*
X147010380Y-70778761D01*
X147010380Y-71064476D01*
X146962761Y-71159714D01*
X146915142Y-71207333D01*
X154122380Y-72112095D02*
X153122380Y-72112095D01*
X153122380Y-71874000D01*
X153170000Y-71731142D01*
X153265238Y-71635904D01*
X153360476Y-71588285D01*
X153550952Y-71540666D01*
X153693809Y-71540666D01*
X153884285Y-71588285D01*
X153979523Y-71635904D01*
X154074761Y-71731142D01*
X154122380Y-71874000D01*
X154122380Y-72112095D01*
X153217619Y-71159714D02*
X153170000Y-71112095D01*
X153122380Y-71016857D01*
X153122380Y-70778761D01*
X153170000Y-70683523D01*
X153217619Y-70635904D01*
X153312857Y-70588285D01*
X153408095Y-70588285D01*
X153550952Y-70635904D01*
X154122380Y-71207333D01*
X154122380Y-70588285D01*
X161234380Y-71858095D02*
X160234380Y-71858095D01*
X160234380Y-71620000D01*
X160282000Y-71477142D01*
X160377238Y-71381904D01*
X160472476Y-71334285D01*
X160662952Y-71286666D01*
X160805809Y-71286666D01*
X160996285Y-71334285D01*
X161091523Y-71381904D01*
X161186761Y-71477142D01*
X161234380Y-71620000D01*
X161234380Y-71858095D01*
X161234380Y-70334285D02*
X161234380Y-70905714D01*
X161234380Y-70620000D02*
X160234380Y-70620000D01*
X160377238Y-70715238D01*
X160472476Y-70810476D01*
X160520095Y-70905714D01*
M02*
