M48
; DRILL file {KiCad 5.1.4+dfsg1-1~bpo10+1} date Fri 22 Jan 2021 02:12:55 PM PST
; FORMAT={-:-/ absolute / inch / decimal}
; #@! TF.CreationDate,2021-01-22T14:12:55-08:00
; #@! TF.GenerationSoftware,Kicad,Pcbnew,5.1.4+dfsg1-1~bpo10+1
FMAT,2
INCH
T1C0.0315
T2C0.0354
%
G90
G05
T1
X5.01Y-2.84
X5.01Y-3.14
X5.11Y-2.84
X5.11Y-3.14
X5.21Y-2.84
X5.21Y-3.14
X5.31Y-2.84
X5.31Y-3.14
X5.77Y-2.22
X5.77Y-2.62
X5.5Y-2.22
X5.5Y-2.62
X4.67Y-3.43
X5.07Y-3.43
X5.62Y-2.22
X5.62Y-2.62
X4.7102Y-2.07
X4.8102Y-2.07
X4.9102Y-2.07
X5.0102Y-2.07
X5.07Y-3.97
X5.1102Y-2.07
X5.17Y-3.97
X5.2102Y-2.07
X5.27Y-3.97
X5.3102Y-2.07
X5.37Y-3.97
X5.4102Y-2.07
X5.47Y-3.97
X5.5102Y-2.07
X5.57Y-3.97
X5.6102Y-2.07
X5.67Y-3.97
X5.77Y-2.07
X5.77Y-3.97
X5.87Y-2.07
X5.97Y-2.07
X5.97Y-3.97
X6.07Y-2.07
X6.07Y-3.97
X6.17Y-2.07
X6.17Y-3.97
X6.27Y-2.07
X6.27Y-3.97
X6.37Y-2.07
X6.37Y-3.97
X6.47Y-2.07
X6.47Y-3.97
X5.27Y-3.7016
X5.27Y-3.8
T2
X5.31Y-3.33
X5.31Y-3.43
X6.33Y-2.94
X6.33Y-3.04
X5.77Y-2.94
X5.77Y-3.04
X6.05Y-2.94
X6.05Y-3.04
T0
M30
