G04 #@! TF.GenerationSoftware,KiCad,Pcbnew,5.1.4+dfsg1-1~bpo10+1*
G04 #@! TF.CreationDate,2021-01-22T14:12:43-08:00*
G04 #@! TF.ProjectId,ATtiny85UnoShield,41547469-6e79-4383-9555-6e6f53686965,rev?*
G04 #@! TF.SameCoordinates,Original*
G04 #@! TF.FileFunction,Copper,L2,Bot*
G04 #@! TF.FilePolarity,Positive*
%FSLAX46Y46*%
G04 Gerber Fmt 4.6, Leading zero omitted, Abs format (unit mm)*
G04 Created by KiCad (PCBNEW 5.1.4+dfsg1-1~bpo10+1) date 2021-01-22 14:12:43*
%MOMM*%
%LPD*%
G04 APERTURE LIST*
%ADD10O,1.600000X1.600000*%
%ADD11R,1.600000X1.600000*%
%ADD12C,1.600000*%
%ADD13C,1.800000*%
%ADD14R,1.800000X1.800000*%
%ADD15C,0.254000*%
G04 APERTURE END LIST*
D10*
X161798000Y-52578000D03*
X164338000Y-52578000D03*
X124718000Y-52578000D03*
X164338000Y-100838000D03*
X127258000Y-52578000D03*
X161798000Y-100838000D03*
X129798000Y-52578000D03*
X159258000Y-100838000D03*
X132338000Y-52578000D03*
X156718000Y-100838000D03*
X134878000Y-52578000D03*
X154178000Y-100838000D03*
X137418000Y-52578000D03*
X151638000Y-100838000D03*
X139958000Y-52578000D03*
X146558000Y-100838000D03*
X142498000Y-52578000D03*
X144018000Y-100838000D03*
X146558000Y-52578000D03*
X141478000Y-100838000D03*
X149098000Y-52578000D03*
X138938000Y-100838000D03*
X151638000Y-52578000D03*
X136398000Y-100838000D03*
X154178000Y-52578000D03*
X133858000Y-100838000D03*
X156718000Y-52578000D03*
X131318000Y-100838000D03*
X159258000Y-52578000D03*
D11*
X128778000Y-100838000D03*
D10*
X122178000Y-52578000D03*
X119638000Y-52578000D03*
D12*
X133858000Y-94020000D03*
D11*
X133858000Y-96520000D03*
D10*
X127254000Y-72136000D03*
X134874000Y-79756000D03*
X129794000Y-72136000D03*
X132334000Y-79756000D03*
X132334000Y-72136000D03*
X129794000Y-79756000D03*
X134874000Y-72136000D03*
D11*
X127254000Y-79756000D03*
D10*
X128778000Y-87122000D03*
D12*
X118618000Y-87122000D03*
D10*
X139700000Y-66548000D03*
D12*
X139700000Y-56388000D03*
D10*
X142748000Y-66548000D03*
D12*
X142748000Y-56388000D03*
D10*
X146558000Y-66548000D03*
D12*
X146558000Y-56388000D03*
D13*
X134874000Y-87122000D03*
D14*
X134874000Y-84582000D03*
D13*
X146558000Y-74676000D03*
D14*
X146558000Y-77216000D03*
D13*
X153670000Y-74676000D03*
D14*
X153670000Y-77216000D03*
D13*
X160782000Y-74676000D03*
D14*
X160782000Y-77216000D03*
D15*
G36*
X166243000Y-51614606D02*
G01*
X166243000Y-63246000D01*
X166245440Y-63270776D01*
X166252667Y-63294601D01*
X166264403Y-63316557D01*
X166280197Y-63335803D01*
X168783414Y-65839020D01*
X169012001Y-94869622D01*
X169012001Y-98016393D01*
X166280197Y-100748197D01*
X166264403Y-100767443D01*
X166252667Y-100789399D01*
X166245440Y-100813224D01*
X166243000Y-100838000D01*
X166243000Y-102972000D01*
X101244000Y-102972000D01*
X101244000Y-100038000D01*
X127339928Y-100038000D01*
X127339928Y-101638000D01*
X127352188Y-101762482D01*
X127388498Y-101882180D01*
X127447463Y-101992494D01*
X127526815Y-102089185D01*
X127623506Y-102168537D01*
X127733820Y-102227502D01*
X127853518Y-102263812D01*
X127978000Y-102276072D01*
X129578000Y-102276072D01*
X129702482Y-102263812D01*
X129822180Y-102227502D01*
X129932494Y-102168537D01*
X130029185Y-102089185D01*
X130108537Y-101992494D01*
X130167502Y-101882180D01*
X130203812Y-101762482D01*
X130205581Y-101744518D01*
X130298392Y-101857608D01*
X130516899Y-102036932D01*
X130766192Y-102170182D01*
X131036691Y-102252236D01*
X131247508Y-102273000D01*
X131388492Y-102273000D01*
X131599309Y-102252236D01*
X131869808Y-102170182D01*
X132119101Y-102036932D01*
X132337608Y-101857608D01*
X132516932Y-101639101D01*
X132588000Y-101506142D01*
X132659068Y-101639101D01*
X132838392Y-101857608D01*
X133056899Y-102036932D01*
X133306192Y-102170182D01*
X133576691Y-102252236D01*
X133787508Y-102273000D01*
X133928492Y-102273000D01*
X134139309Y-102252236D01*
X134409808Y-102170182D01*
X134659101Y-102036932D01*
X134877608Y-101857608D01*
X135056932Y-101639101D01*
X135128000Y-101506142D01*
X135199068Y-101639101D01*
X135378392Y-101857608D01*
X135596899Y-102036932D01*
X135846192Y-102170182D01*
X136116691Y-102252236D01*
X136327508Y-102273000D01*
X136468492Y-102273000D01*
X136679309Y-102252236D01*
X136949808Y-102170182D01*
X137199101Y-102036932D01*
X137417608Y-101857608D01*
X137596932Y-101639101D01*
X137668000Y-101506142D01*
X137739068Y-101639101D01*
X137918392Y-101857608D01*
X138136899Y-102036932D01*
X138386192Y-102170182D01*
X138656691Y-102252236D01*
X138867508Y-102273000D01*
X139008492Y-102273000D01*
X139219309Y-102252236D01*
X139489808Y-102170182D01*
X139739101Y-102036932D01*
X139957608Y-101857608D01*
X140136932Y-101639101D01*
X140210579Y-101501318D01*
X140325615Y-101693131D01*
X140514586Y-101901519D01*
X140740580Y-102069037D01*
X140994913Y-102189246D01*
X141128961Y-102229904D01*
X141351000Y-102107915D01*
X141351000Y-100965000D01*
X141605000Y-100965000D01*
X141605000Y-102107915D01*
X141827039Y-102229904D01*
X141961087Y-102189246D01*
X142215420Y-102069037D01*
X142441414Y-101901519D01*
X142630385Y-101693131D01*
X142748000Y-101497018D01*
X142865615Y-101693131D01*
X143054586Y-101901519D01*
X143280580Y-102069037D01*
X143534913Y-102189246D01*
X143668961Y-102229904D01*
X143891000Y-102107915D01*
X143891000Y-100965000D01*
X141605000Y-100965000D01*
X141351000Y-100965000D01*
X141331000Y-100965000D01*
X141331000Y-100711000D01*
X141351000Y-100711000D01*
X141351000Y-99568085D01*
X141605000Y-99568085D01*
X141605000Y-100711000D01*
X143891000Y-100711000D01*
X143891000Y-99568085D01*
X144145000Y-99568085D01*
X144145000Y-100711000D01*
X144165000Y-100711000D01*
X144165000Y-100965000D01*
X144145000Y-100965000D01*
X144145000Y-102107915D01*
X144367039Y-102229904D01*
X144501087Y-102189246D01*
X144755420Y-102069037D01*
X144981414Y-101901519D01*
X145170385Y-101693131D01*
X145285421Y-101501318D01*
X145359068Y-101639101D01*
X145538392Y-101857608D01*
X145756899Y-102036932D01*
X146006192Y-102170182D01*
X146276691Y-102252236D01*
X146487508Y-102273000D01*
X146628492Y-102273000D01*
X146839309Y-102252236D01*
X147109808Y-102170182D01*
X147359101Y-102036932D01*
X147577608Y-101857608D01*
X147756932Y-101639101D01*
X147890182Y-101389808D01*
X147972236Y-101119309D01*
X147999943Y-100838000D01*
X150196057Y-100838000D01*
X150223764Y-101119309D01*
X150305818Y-101389808D01*
X150439068Y-101639101D01*
X150618392Y-101857608D01*
X150836899Y-102036932D01*
X151086192Y-102170182D01*
X151356691Y-102252236D01*
X151567508Y-102273000D01*
X151708492Y-102273000D01*
X151919309Y-102252236D01*
X152189808Y-102170182D01*
X152439101Y-102036932D01*
X152657608Y-101857608D01*
X152836932Y-101639101D01*
X152908000Y-101506142D01*
X152979068Y-101639101D01*
X153158392Y-101857608D01*
X153376899Y-102036932D01*
X153626192Y-102170182D01*
X153896691Y-102252236D01*
X154107508Y-102273000D01*
X154248492Y-102273000D01*
X154459309Y-102252236D01*
X154729808Y-102170182D01*
X154979101Y-102036932D01*
X155197608Y-101857608D01*
X155376932Y-101639101D01*
X155448000Y-101506142D01*
X155519068Y-101639101D01*
X155698392Y-101857608D01*
X155916899Y-102036932D01*
X156166192Y-102170182D01*
X156436691Y-102252236D01*
X156647508Y-102273000D01*
X156788492Y-102273000D01*
X156999309Y-102252236D01*
X157269808Y-102170182D01*
X157519101Y-102036932D01*
X157737608Y-101857608D01*
X157916932Y-101639101D01*
X157988000Y-101506142D01*
X158059068Y-101639101D01*
X158238392Y-101857608D01*
X158456899Y-102036932D01*
X158706192Y-102170182D01*
X158976691Y-102252236D01*
X159187508Y-102273000D01*
X159328492Y-102273000D01*
X159539309Y-102252236D01*
X159809808Y-102170182D01*
X160059101Y-102036932D01*
X160277608Y-101857608D01*
X160456932Y-101639101D01*
X160528000Y-101506142D01*
X160599068Y-101639101D01*
X160778392Y-101857608D01*
X160996899Y-102036932D01*
X161246192Y-102170182D01*
X161516691Y-102252236D01*
X161727508Y-102273000D01*
X161868492Y-102273000D01*
X162079309Y-102252236D01*
X162349808Y-102170182D01*
X162599101Y-102036932D01*
X162817608Y-101857608D01*
X162996932Y-101639101D01*
X163068000Y-101506142D01*
X163139068Y-101639101D01*
X163318392Y-101857608D01*
X163536899Y-102036932D01*
X163786192Y-102170182D01*
X164056691Y-102252236D01*
X164267508Y-102273000D01*
X164408492Y-102273000D01*
X164619309Y-102252236D01*
X164889808Y-102170182D01*
X165139101Y-102036932D01*
X165357608Y-101857608D01*
X165536932Y-101639101D01*
X165670182Y-101389808D01*
X165752236Y-101119309D01*
X165779943Y-100838000D01*
X165752236Y-100556691D01*
X165670182Y-100286192D01*
X165536932Y-100036899D01*
X165357608Y-99818392D01*
X165139101Y-99639068D01*
X164889808Y-99505818D01*
X164619309Y-99423764D01*
X164408492Y-99403000D01*
X164267508Y-99403000D01*
X164056691Y-99423764D01*
X163786192Y-99505818D01*
X163536899Y-99639068D01*
X163318392Y-99818392D01*
X163139068Y-100036899D01*
X163068000Y-100169858D01*
X162996932Y-100036899D01*
X162817608Y-99818392D01*
X162599101Y-99639068D01*
X162349808Y-99505818D01*
X162079309Y-99423764D01*
X161868492Y-99403000D01*
X161727508Y-99403000D01*
X161516691Y-99423764D01*
X161246192Y-99505818D01*
X160996899Y-99639068D01*
X160778392Y-99818392D01*
X160599068Y-100036899D01*
X160528000Y-100169858D01*
X160456932Y-100036899D01*
X160277608Y-99818392D01*
X160059101Y-99639068D01*
X159809808Y-99505818D01*
X159539309Y-99423764D01*
X159328492Y-99403000D01*
X159187508Y-99403000D01*
X158976691Y-99423764D01*
X158706192Y-99505818D01*
X158456899Y-99639068D01*
X158238392Y-99818392D01*
X158059068Y-100036899D01*
X157988000Y-100169858D01*
X157916932Y-100036899D01*
X157737608Y-99818392D01*
X157519101Y-99639068D01*
X157269808Y-99505818D01*
X156999309Y-99423764D01*
X156788492Y-99403000D01*
X156647508Y-99403000D01*
X156436691Y-99423764D01*
X156166192Y-99505818D01*
X155916899Y-99639068D01*
X155698392Y-99818392D01*
X155519068Y-100036899D01*
X155448000Y-100169858D01*
X155376932Y-100036899D01*
X155197608Y-99818392D01*
X154979101Y-99639068D01*
X154729808Y-99505818D01*
X154459309Y-99423764D01*
X154248492Y-99403000D01*
X154107508Y-99403000D01*
X153896691Y-99423764D01*
X153626192Y-99505818D01*
X153376899Y-99639068D01*
X153158392Y-99818392D01*
X152979068Y-100036899D01*
X152908000Y-100169858D01*
X152836932Y-100036899D01*
X152657608Y-99818392D01*
X152439101Y-99639068D01*
X152189808Y-99505818D01*
X151919309Y-99423764D01*
X151708492Y-99403000D01*
X151567508Y-99403000D01*
X151356691Y-99423764D01*
X151086192Y-99505818D01*
X150836899Y-99639068D01*
X150618392Y-99818392D01*
X150439068Y-100036899D01*
X150305818Y-100286192D01*
X150223764Y-100556691D01*
X150196057Y-100838000D01*
X147999943Y-100838000D01*
X147972236Y-100556691D01*
X147890182Y-100286192D01*
X147756932Y-100036899D01*
X147577608Y-99818392D01*
X147359101Y-99639068D01*
X147109808Y-99505818D01*
X146839309Y-99423764D01*
X146628492Y-99403000D01*
X146487508Y-99403000D01*
X146276691Y-99423764D01*
X146006192Y-99505818D01*
X145756899Y-99639068D01*
X145538392Y-99818392D01*
X145359068Y-100036899D01*
X145285421Y-100174682D01*
X145170385Y-99982869D01*
X144981414Y-99774481D01*
X144755420Y-99606963D01*
X144501087Y-99486754D01*
X144367039Y-99446096D01*
X144145000Y-99568085D01*
X143891000Y-99568085D01*
X143668961Y-99446096D01*
X143534913Y-99486754D01*
X143280580Y-99606963D01*
X143054586Y-99774481D01*
X142865615Y-99982869D01*
X142748000Y-100178982D01*
X142630385Y-99982869D01*
X142441414Y-99774481D01*
X142215420Y-99606963D01*
X141961087Y-99486754D01*
X141827039Y-99446096D01*
X141605000Y-99568085D01*
X141351000Y-99568085D01*
X141128961Y-99446096D01*
X140994913Y-99486754D01*
X140740580Y-99606963D01*
X140514586Y-99774481D01*
X140325615Y-99982869D01*
X140210579Y-100174682D01*
X140136932Y-100036899D01*
X139957608Y-99818392D01*
X139739101Y-99639068D01*
X139489808Y-99505818D01*
X139219309Y-99423764D01*
X139008492Y-99403000D01*
X138867508Y-99403000D01*
X138656691Y-99423764D01*
X138386192Y-99505818D01*
X138136899Y-99639068D01*
X137918392Y-99818392D01*
X137739068Y-100036899D01*
X137668000Y-100169858D01*
X137596932Y-100036899D01*
X137417608Y-99818392D01*
X137199101Y-99639068D01*
X136949808Y-99505818D01*
X136679309Y-99423764D01*
X136468492Y-99403000D01*
X136327508Y-99403000D01*
X136116691Y-99423764D01*
X135846192Y-99505818D01*
X135596899Y-99639068D01*
X135378392Y-99818392D01*
X135199068Y-100036899D01*
X135128000Y-100169858D01*
X135056932Y-100036899D01*
X134877608Y-99818392D01*
X134659101Y-99639068D01*
X134409808Y-99505818D01*
X134139309Y-99423764D01*
X133928492Y-99403000D01*
X133787508Y-99403000D01*
X133576691Y-99423764D01*
X133306192Y-99505818D01*
X133056899Y-99639068D01*
X132838392Y-99818392D01*
X132659068Y-100036899D01*
X132588000Y-100169858D01*
X132516932Y-100036899D01*
X132337608Y-99818392D01*
X132119101Y-99639068D01*
X131869808Y-99505818D01*
X131599309Y-99423764D01*
X131388492Y-99403000D01*
X131247508Y-99403000D01*
X131036691Y-99423764D01*
X130766192Y-99505818D01*
X130516899Y-99639068D01*
X130298392Y-99818392D01*
X130205581Y-99931482D01*
X130203812Y-99913518D01*
X130167502Y-99793820D01*
X130108537Y-99683506D01*
X130029185Y-99586815D01*
X129932494Y-99507463D01*
X129822180Y-99448498D01*
X129702482Y-99412188D01*
X129578000Y-99399928D01*
X127978000Y-99399928D01*
X127853518Y-99412188D01*
X127733820Y-99448498D01*
X127623506Y-99507463D01*
X127526815Y-99586815D01*
X127447463Y-99683506D01*
X127388498Y-99793820D01*
X127352188Y-99913518D01*
X127339928Y-100038000D01*
X101244000Y-100038000D01*
X101244000Y-95720000D01*
X132419928Y-95720000D01*
X132419928Y-97320000D01*
X132432188Y-97444482D01*
X132468498Y-97564180D01*
X132527463Y-97674494D01*
X132606815Y-97771185D01*
X132703506Y-97850537D01*
X132813820Y-97909502D01*
X132933518Y-97945812D01*
X133058000Y-97958072D01*
X134658000Y-97958072D01*
X134782482Y-97945812D01*
X134902180Y-97909502D01*
X135012494Y-97850537D01*
X135109185Y-97771185D01*
X135188537Y-97674494D01*
X135247502Y-97564180D01*
X135283812Y-97444482D01*
X135296072Y-97320000D01*
X135296072Y-95720000D01*
X135283812Y-95595518D01*
X135247502Y-95475820D01*
X135188537Y-95365506D01*
X135109185Y-95268815D01*
X135012494Y-95189463D01*
X134902180Y-95130498D01*
X134782482Y-95094188D01*
X134658000Y-95081928D01*
X134650785Y-95081928D01*
X134671097Y-95012702D01*
X133858000Y-94199605D01*
X133044903Y-95012702D01*
X133065215Y-95081928D01*
X133058000Y-95081928D01*
X132933518Y-95094188D01*
X132813820Y-95130498D01*
X132703506Y-95189463D01*
X132606815Y-95268815D01*
X132527463Y-95365506D01*
X132468498Y-95475820D01*
X132432188Y-95595518D01*
X132419928Y-95720000D01*
X101244000Y-95720000D01*
X101244000Y-94090512D01*
X132417783Y-94090512D01*
X132459213Y-94370130D01*
X132554397Y-94636292D01*
X132621329Y-94761514D01*
X132865298Y-94833097D01*
X133678395Y-94020000D01*
X134037605Y-94020000D01*
X134850702Y-94833097D01*
X135094671Y-94761514D01*
X135215571Y-94506004D01*
X135284300Y-94231816D01*
X135298217Y-93949488D01*
X135256787Y-93669870D01*
X135161603Y-93403708D01*
X135094671Y-93278486D01*
X134850702Y-93206903D01*
X134037605Y-94020000D01*
X133678395Y-94020000D01*
X132865298Y-93206903D01*
X132621329Y-93278486D01*
X132500429Y-93533996D01*
X132431700Y-93808184D01*
X132417783Y-94090512D01*
X101244000Y-94090512D01*
X101244000Y-93027298D01*
X133044903Y-93027298D01*
X133858000Y-93840395D01*
X134671097Y-93027298D01*
X134599514Y-92783329D01*
X134344004Y-92662429D01*
X134069816Y-92593700D01*
X133787488Y-92579783D01*
X133507870Y-92621213D01*
X133241708Y-92716397D01*
X133116486Y-92783329D01*
X133044903Y-93027298D01*
X101244000Y-93027298D01*
X101244000Y-86980665D01*
X117183000Y-86980665D01*
X117183000Y-87263335D01*
X117238147Y-87540574D01*
X117346320Y-87801727D01*
X117503363Y-88036759D01*
X117703241Y-88236637D01*
X117938273Y-88393680D01*
X118199426Y-88501853D01*
X118476665Y-88557000D01*
X118759335Y-88557000D01*
X119036574Y-88501853D01*
X119297727Y-88393680D01*
X119532759Y-88236637D01*
X119732637Y-88036759D01*
X119889680Y-87801727D01*
X119997853Y-87540574D01*
X120053000Y-87263335D01*
X120053000Y-87122000D01*
X127336057Y-87122000D01*
X127363764Y-87403309D01*
X127445818Y-87673808D01*
X127579068Y-87923101D01*
X127758392Y-88141608D01*
X127976899Y-88320932D01*
X128226192Y-88454182D01*
X128496691Y-88536236D01*
X128707508Y-88557000D01*
X128848492Y-88557000D01*
X129059309Y-88536236D01*
X129329808Y-88454182D01*
X129579101Y-88320932D01*
X129797608Y-88141608D01*
X129976932Y-87923101D01*
X130110182Y-87673808D01*
X130192236Y-87403309D01*
X130219943Y-87122000D01*
X130192236Y-86840691D01*
X130110182Y-86570192D01*
X129976932Y-86320899D01*
X129797608Y-86102392D01*
X129579101Y-85923068D01*
X129329808Y-85789818D01*
X129059309Y-85707764D01*
X128848492Y-85687000D01*
X128707508Y-85687000D01*
X128496691Y-85707764D01*
X128226192Y-85789818D01*
X127976899Y-85923068D01*
X127758392Y-86102392D01*
X127579068Y-86320899D01*
X127445818Y-86570192D01*
X127363764Y-86840691D01*
X127336057Y-87122000D01*
X120053000Y-87122000D01*
X120053000Y-86980665D01*
X119997853Y-86703426D01*
X119889680Y-86442273D01*
X119732637Y-86207241D01*
X119532759Y-86007363D01*
X119297727Y-85850320D01*
X119036574Y-85742147D01*
X118759335Y-85687000D01*
X118476665Y-85687000D01*
X118199426Y-85742147D01*
X117938273Y-85850320D01*
X117703241Y-86007363D01*
X117503363Y-86207241D01*
X117346320Y-86442273D01*
X117238147Y-86703426D01*
X117183000Y-86980665D01*
X101244000Y-86980665D01*
X101244000Y-85482000D01*
X133335928Y-85482000D01*
X133348188Y-85606482D01*
X133384498Y-85726180D01*
X133443463Y-85836494D01*
X133522815Y-85933185D01*
X133619506Y-86012537D01*
X133729820Y-86071502D01*
X133748127Y-86077056D01*
X133681688Y-86143495D01*
X133513701Y-86394905D01*
X133397989Y-86674257D01*
X133339000Y-86970816D01*
X133339000Y-87273184D01*
X133397989Y-87569743D01*
X133513701Y-87849095D01*
X133681688Y-88100505D01*
X133895495Y-88314312D01*
X134146905Y-88482299D01*
X134426257Y-88598011D01*
X134722816Y-88657000D01*
X135025184Y-88657000D01*
X135321743Y-88598011D01*
X135601095Y-88482299D01*
X135852505Y-88314312D01*
X136066312Y-88100505D01*
X136234299Y-87849095D01*
X136350011Y-87569743D01*
X136409000Y-87273184D01*
X136409000Y-86970816D01*
X136350011Y-86674257D01*
X136234299Y-86394905D01*
X136066312Y-86143495D01*
X135999873Y-86077056D01*
X136018180Y-86071502D01*
X136128494Y-86012537D01*
X136225185Y-85933185D01*
X136304537Y-85836494D01*
X136363502Y-85726180D01*
X136399812Y-85606482D01*
X136412072Y-85482000D01*
X136409000Y-84867750D01*
X136250250Y-84709000D01*
X135001000Y-84709000D01*
X135001000Y-84729000D01*
X134747000Y-84729000D01*
X134747000Y-84709000D01*
X133497750Y-84709000D01*
X133339000Y-84867750D01*
X133335928Y-85482000D01*
X101244000Y-85482000D01*
X101244000Y-83682000D01*
X133335928Y-83682000D01*
X133339000Y-84296250D01*
X133497750Y-84455000D01*
X134747000Y-84455000D01*
X134747000Y-83205750D01*
X135001000Y-83205750D01*
X135001000Y-84455000D01*
X136250250Y-84455000D01*
X136409000Y-84296250D01*
X136412072Y-83682000D01*
X136399812Y-83557518D01*
X136363502Y-83437820D01*
X136304537Y-83327506D01*
X136225185Y-83230815D01*
X136128494Y-83151463D01*
X136018180Y-83092498D01*
X135898482Y-83056188D01*
X135774000Y-83043928D01*
X135159750Y-83047000D01*
X135001000Y-83205750D01*
X134747000Y-83205750D01*
X134588250Y-83047000D01*
X133974000Y-83043928D01*
X133849518Y-83056188D01*
X133729820Y-83092498D01*
X133619506Y-83151463D01*
X133522815Y-83230815D01*
X133443463Y-83327506D01*
X133384498Y-83437820D01*
X133348188Y-83557518D01*
X133335928Y-83682000D01*
X101244000Y-83682000D01*
X101244000Y-78956000D01*
X125815928Y-78956000D01*
X125815928Y-80556000D01*
X125828188Y-80680482D01*
X125864498Y-80800180D01*
X125923463Y-80910494D01*
X126002815Y-81007185D01*
X126099506Y-81086537D01*
X126209820Y-81145502D01*
X126329518Y-81181812D01*
X126454000Y-81194072D01*
X128054000Y-81194072D01*
X128178482Y-81181812D01*
X128298180Y-81145502D01*
X128408494Y-81086537D01*
X128505185Y-81007185D01*
X128584537Y-80910494D01*
X128643502Y-80800180D01*
X128679812Y-80680482D01*
X128681581Y-80662518D01*
X128774392Y-80775608D01*
X128992899Y-80954932D01*
X129242192Y-81088182D01*
X129512691Y-81170236D01*
X129723508Y-81191000D01*
X129864492Y-81191000D01*
X130075309Y-81170236D01*
X130345808Y-81088182D01*
X130595101Y-80954932D01*
X130813608Y-80775608D01*
X130992932Y-80557101D01*
X131064000Y-80424142D01*
X131135068Y-80557101D01*
X131314392Y-80775608D01*
X131532899Y-80954932D01*
X131782192Y-81088182D01*
X132052691Y-81170236D01*
X132263508Y-81191000D01*
X132404492Y-81191000D01*
X132615309Y-81170236D01*
X132885808Y-81088182D01*
X133135101Y-80954932D01*
X133353608Y-80775608D01*
X133532932Y-80557101D01*
X133606579Y-80419318D01*
X133721615Y-80611131D01*
X133910586Y-80819519D01*
X134136580Y-80987037D01*
X134390913Y-81107246D01*
X134524961Y-81147904D01*
X134747000Y-81025915D01*
X134747000Y-79883000D01*
X135001000Y-79883000D01*
X135001000Y-81025915D01*
X135223039Y-81147904D01*
X135357087Y-81107246D01*
X135611420Y-80987037D01*
X135837414Y-80819519D01*
X136026385Y-80611131D01*
X136171070Y-80369881D01*
X136265909Y-80105040D01*
X136144624Y-79883000D01*
X135001000Y-79883000D01*
X134747000Y-79883000D01*
X134727000Y-79883000D01*
X134727000Y-79629000D01*
X134747000Y-79629000D01*
X134747000Y-78486085D01*
X135001000Y-78486085D01*
X135001000Y-79629000D01*
X136144624Y-79629000D01*
X136265909Y-79406960D01*
X136171070Y-79142119D01*
X136026385Y-78900869D01*
X135837414Y-78692481D01*
X135611420Y-78524963D01*
X135357087Y-78404754D01*
X135223039Y-78364096D01*
X135001000Y-78486085D01*
X134747000Y-78486085D01*
X134524961Y-78364096D01*
X134390913Y-78404754D01*
X134136580Y-78524963D01*
X133910586Y-78692481D01*
X133721615Y-78900869D01*
X133606579Y-79092682D01*
X133532932Y-78954899D01*
X133353608Y-78736392D01*
X133135101Y-78557068D01*
X132885808Y-78423818D01*
X132615309Y-78341764D01*
X132404492Y-78321000D01*
X132263508Y-78321000D01*
X132052691Y-78341764D01*
X131782192Y-78423818D01*
X131532899Y-78557068D01*
X131314392Y-78736392D01*
X131135068Y-78954899D01*
X131064000Y-79087858D01*
X130992932Y-78954899D01*
X130813608Y-78736392D01*
X130595101Y-78557068D01*
X130345808Y-78423818D01*
X130075309Y-78341764D01*
X129864492Y-78321000D01*
X129723508Y-78321000D01*
X129512691Y-78341764D01*
X129242192Y-78423818D01*
X128992899Y-78557068D01*
X128774392Y-78736392D01*
X128681581Y-78849482D01*
X128679812Y-78831518D01*
X128643502Y-78711820D01*
X128584537Y-78601506D01*
X128505185Y-78504815D01*
X128408494Y-78425463D01*
X128298180Y-78366498D01*
X128178482Y-78330188D01*
X128054000Y-78317928D01*
X126454000Y-78317928D01*
X126329518Y-78330188D01*
X126209820Y-78366498D01*
X126099506Y-78425463D01*
X126002815Y-78504815D01*
X125923463Y-78601506D01*
X125864498Y-78711820D01*
X125828188Y-78831518D01*
X125815928Y-78956000D01*
X101244000Y-78956000D01*
X101244000Y-78116000D01*
X145019928Y-78116000D01*
X145032188Y-78240482D01*
X145068498Y-78360180D01*
X145127463Y-78470494D01*
X145206815Y-78567185D01*
X145303506Y-78646537D01*
X145413820Y-78705502D01*
X145533518Y-78741812D01*
X145658000Y-78754072D01*
X146272250Y-78751000D01*
X146431000Y-78592250D01*
X146431000Y-77343000D01*
X146685000Y-77343000D01*
X146685000Y-78592250D01*
X146843750Y-78751000D01*
X147458000Y-78754072D01*
X147582482Y-78741812D01*
X147702180Y-78705502D01*
X147812494Y-78646537D01*
X147909185Y-78567185D01*
X147988537Y-78470494D01*
X148047502Y-78360180D01*
X148083812Y-78240482D01*
X148096072Y-78116000D01*
X152131928Y-78116000D01*
X152144188Y-78240482D01*
X152180498Y-78360180D01*
X152239463Y-78470494D01*
X152318815Y-78567185D01*
X152415506Y-78646537D01*
X152525820Y-78705502D01*
X152645518Y-78741812D01*
X152770000Y-78754072D01*
X153384250Y-78751000D01*
X153543000Y-78592250D01*
X153543000Y-77343000D01*
X153797000Y-77343000D01*
X153797000Y-78592250D01*
X153955750Y-78751000D01*
X154570000Y-78754072D01*
X154694482Y-78741812D01*
X154814180Y-78705502D01*
X154924494Y-78646537D01*
X155021185Y-78567185D01*
X155100537Y-78470494D01*
X155159502Y-78360180D01*
X155195812Y-78240482D01*
X155208072Y-78116000D01*
X159243928Y-78116000D01*
X159256188Y-78240482D01*
X159292498Y-78360180D01*
X159351463Y-78470494D01*
X159430815Y-78567185D01*
X159527506Y-78646537D01*
X159637820Y-78705502D01*
X159757518Y-78741812D01*
X159882000Y-78754072D01*
X160496250Y-78751000D01*
X160655000Y-78592250D01*
X160655000Y-77343000D01*
X160909000Y-77343000D01*
X160909000Y-78592250D01*
X161067750Y-78751000D01*
X161682000Y-78754072D01*
X161806482Y-78741812D01*
X161926180Y-78705502D01*
X162036494Y-78646537D01*
X162133185Y-78567185D01*
X162212537Y-78470494D01*
X162271502Y-78360180D01*
X162307812Y-78240482D01*
X162320072Y-78116000D01*
X162317000Y-77501750D01*
X162158250Y-77343000D01*
X160909000Y-77343000D01*
X160655000Y-77343000D01*
X159405750Y-77343000D01*
X159247000Y-77501750D01*
X159243928Y-78116000D01*
X155208072Y-78116000D01*
X155205000Y-77501750D01*
X155046250Y-77343000D01*
X153797000Y-77343000D01*
X153543000Y-77343000D01*
X152293750Y-77343000D01*
X152135000Y-77501750D01*
X152131928Y-78116000D01*
X148096072Y-78116000D01*
X148093000Y-77501750D01*
X147934250Y-77343000D01*
X146685000Y-77343000D01*
X146431000Y-77343000D01*
X145181750Y-77343000D01*
X145023000Y-77501750D01*
X145019928Y-78116000D01*
X101244000Y-78116000D01*
X101244000Y-76316000D01*
X145019928Y-76316000D01*
X145023000Y-76930250D01*
X145181750Y-77089000D01*
X146431000Y-77089000D01*
X146431000Y-77069000D01*
X146685000Y-77069000D01*
X146685000Y-77089000D01*
X147934250Y-77089000D01*
X148093000Y-76930250D01*
X148096072Y-76316000D01*
X152131928Y-76316000D01*
X152135000Y-76930250D01*
X152293750Y-77089000D01*
X153543000Y-77089000D01*
X153543000Y-77069000D01*
X153797000Y-77069000D01*
X153797000Y-77089000D01*
X155046250Y-77089000D01*
X155205000Y-76930250D01*
X155208072Y-76316000D01*
X159243928Y-76316000D01*
X159247000Y-76930250D01*
X159405750Y-77089000D01*
X160655000Y-77089000D01*
X160655000Y-77069000D01*
X160909000Y-77069000D01*
X160909000Y-77089000D01*
X162158250Y-77089000D01*
X162317000Y-76930250D01*
X162320072Y-76316000D01*
X162307812Y-76191518D01*
X162271502Y-76071820D01*
X162212537Y-75961506D01*
X162133185Y-75864815D01*
X162036494Y-75785463D01*
X161926180Y-75726498D01*
X161907873Y-75720944D01*
X161974312Y-75654505D01*
X162142299Y-75403095D01*
X162258011Y-75123743D01*
X162317000Y-74827184D01*
X162317000Y-74524816D01*
X162258011Y-74228257D01*
X162142299Y-73948905D01*
X161974312Y-73697495D01*
X161760505Y-73483688D01*
X161509095Y-73315701D01*
X161229743Y-73199989D01*
X160933184Y-73141000D01*
X160630816Y-73141000D01*
X160334257Y-73199989D01*
X160054905Y-73315701D01*
X159803495Y-73483688D01*
X159589688Y-73697495D01*
X159421701Y-73948905D01*
X159305989Y-74228257D01*
X159247000Y-74524816D01*
X159247000Y-74827184D01*
X159305989Y-75123743D01*
X159421701Y-75403095D01*
X159589688Y-75654505D01*
X159656127Y-75720944D01*
X159637820Y-75726498D01*
X159527506Y-75785463D01*
X159430815Y-75864815D01*
X159351463Y-75961506D01*
X159292498Y-76071820D01*
X159256188Y-76191518D01*
X159243928Y-76316000D01*
X155208072Y-76316000D01*
X155195812Y-76191518D01*
X155159502Y-76071820D01*
X155100537Y-75961506D01*
X155021185Y-75864815D01*
X154924494Y-75785463D01*
X154814180Y-75726498D01*
X154795873Y-75720944D01*
X154862312Y-75654505D01*
X155030299Y-75403095D01*
X155146011Y-75123743D01*
X155205000Y-74827184D01*
X155205000Y-74524816D01*
X155146011Y-74228257D01*
X155030299Y-73948905D01*
X154862312Y-73697495D01*
X154648505Y-73483688D01*
X154397095Y-73315701D01*
X154117743Y-73199989D01*
X153821184Y-73141000D01*
X153518816Y-73141000D01*
X153222257Y-73199989D01*
X152942905Y-73315701D01*
X152691495Y-73483688D01*
X152477688Y-73697495D01*
X152309701Y-73948905D01*
X152193989Y-74228257D01*
X152135000Y-74524816D01*
X152135000Y-74827184D01*
X152193989Y-75123743D01*
X152309701Y-75403095D01*
X152477688Y-75654505D01*
X152544127Y-75720944D01*
X152525820Y-75726498D01*
X152415506Y-75785463D01*
X152318815Y-75864815D01*
X152239463Y-75961506D01*
X152180498Y-76071820D01*
X152144188Y-76191518D01*
X152131928Y-76316000D01*
X148096072Y-76316000D01*
X148083812Y-76191518D01*
X148047502Y-76071820D01*
X147988537Y-75961506D01*
X147909185Y-75864815D01*
X147812494Y-75785463D01*
X147702180Y-75726498D01*
X147683873Y-75720944D01*
X147750312Y-75654505D01*
X147918299Y-75403095D01*
X148034011Y-75123743D01*
X148093000Y-74827184D01*
X148093000Y-74524816D01*
X148034011Y-74228257D01*
X147918299Y-73948905D01*
X147750312Y-73697495D01*
X147536505Y-73483688D01*
X147285095Y-73315701D01*
X147005743Y-73199989D01*
X146709184Y-73141000D01*
X146406816Y-73141000D01*
X146110257Y-73199989D01*
X145830905Y-73315701D01*
X145579495Y-73483688D01*
X145365688Y-73697495D01*
X145197701Y-73948905D01*
X145081989Y-74228257D01*
X145023000Y-74524816D01*
X145023000Y-74827184D01*
X145081989Y-75123743D01*
X145197701Y-75403095D01*
X145365688Y-75654505D01*
X145432127Y-75720944D01*
X145413820Y-75726498D01*
X145303506Y-75785463D01*
X145206815Y-75864815D01*
X145127463Y-75961506D01*
X145068498Y-76071820D01*
X145032188Y-76191518D01*
X145019928Y-76316000D01*
X101244000Y-76316000D01*
X101244000Y-72136000D01*
X125812057Y-72136000D01*
X125839764Y-72417309D01*
X125921818Y-72687808D01*
X126055068Y-72937101D01*
X126234392Y-73155608D01*
X126452899Y-73334932D01*
X126702192Y-73468182D01*
X126972691Y-73550236D01*
X127183508Y-73571000D01*
X127324492Y-73571000D01*
X127535309Y-73550236D01*
X127805808Y-73468182D01*
X128055101Y-73334932D01*
X128273608Y-73155608D01*
X128452932Y-72937101D01*
X128524000Y-72804142D01*
X128595068Y-72937101D01*
X128774392Y-73155608D01*
X128992899Y-73334932D01*
X129242192Y-73468182D01*
X129512691Y-73550236D01*
X129723508Y-73571000D01*
X129864492Y-73571000D01*
X130075309Y-73550236D01*
X130345808Y-73468182D01*
X130595101Y-73334932D01*
X130813608Y-73155608D01*
X130992932Y-72937101D01*
X131064000Y-72804142D01*
X131135068Y-72937101D01*
X131314392Y-73155608D01*
X131532899Y-73334932D01*
X131782192Y-73468182D01*
X132052691Y-73550236D01*
X132263508Y-73571000D01*
X132404492Y-73571000D01*
X132615309Y-73550236D01*
X132885808Y-73468182D01*
X133135101Y-73334932D01*
X133353608Y-73155608D01*
X133532932Y-72937101D01*
X133604000Y-72804142D01*
X133675068Y-72937101D01*
X133854392Y-73155608D01*
X134072899Y-73334932D01*
X134322192Y-73468182D01*
X134592691Y-73550236D01*
X134803508Y-73571000D01*
X134944492Y-73571000D01*
X135155309Y-73550236D01*
X135425808Y-73468182D01*
X135675101Y-73334932D01*
X135893608Y-73155608D01*
X136072932Y-72937101D01*
X136206182Y-72687808D01*
X136288236Y-72417309D01*
X136315943Y-72136000D01*
X136288236Y-71854691D01*
X136206182Y-71584192D01*
X136072932Y-71334899D01*
X135893608Y-71116392D01*
X135675101Y-70937068D01*
X135425808Y-70803818D01*
X135155309Y-70721764D01*
X134944492Y-70701000D01*
X134803508Y-70701000D01*
X134592691Y-70721764D01*
X134322192Y-70803818D01*
X134072899Y-70937068D01*
X133854392Y-71116392D01*
X133675068Y-71334899D01*
X133604000Y-71467858D01*
X133532932Y-71334899D01*
X133353608Y-71116392D01*
X133135101Y-70937068D01*
X132885808Y-70803818D01*
X132615309Y-70721764D01*
X132404492Y-70701000D01*
X132263508Y-70701000D01*
X132052691Y-70721764D01*
X131782192Y-70803818D01*
X131532899Y-70937068D01*
X131314392Y-71116392D01*
X131135068Y-71334899D01*
X131064000Y-71467858D01*
X130992932Y-71334899D01*
X130813608Y-71116392D01*
X130595101Y-70937068D01*
X130345808Y-70803818D01*
X130075309Y-70721764D01*
X129864492Y-70701000D01*
X129723508Y-70701000D01*
X129512691Y-70721764D01*
X129242192Y-70803818D01*
X128992899Y-70937068D01*
X128774392Y-71116392D01*
X128595068Y-71334899D01*
X128524000Y-71467858D01*
X128452932Y-71334899D01*
X128273608Y-71116392D01*
X128055101Y-70937068D01*
X127805808Y-70803818D01*
X127535309Y-70721764D01*
X127324492Y-70701000D01*
X127183508Y-70701000D01*
X126972691Y-70721764D01*
X126702192Y-70803818D01*
X126452899Y-70937068D01*
X126234392Y-71116392D01*
X126055068Y-71334899D01*
X125921818Y-71584192D01*
X125839764Y-71854691D01*
X125812057Y-72136000D01*
X101244000Y-72136000D01*
X101244000Y-66548000D01*
X138258057Y-66548000D01*
X138285764Y-66829309D01*
X138367818Y-67099808D01*
X138501068Y-67349101D01*
X138680392Y-67567608D01*
X138898899Y-67746932D01*
X139148192Y-67880182D01*
X139418691Y-67962236D01*
X139629508Y-67983000D01*
X139770492Y-67983000D01*
X139981309Y-67962236D01*
X140251808Y-67880182D01*
X140501101Y-67746932D01*
X140719608Y-67567608D01*
X140898932Y-67349101D01*
X141032182Y-67099808D01*
X141114236Y-66829309D01*
X141141943Y-66548000D01*
X141306057Y-66548000D01*
X141333764Y-66829309D01*
X141415818Y-67099808D01*
X141549068Y-67349101D01*
X141728392Y-67567608D01*
X141946899Y-67746932D01*
X142196192Y-67880182D01*
X142466691Y-67962236D01*
X142677508Y-67983000D01*
X142818492Y-67983000D01*
X143029309Y-67962236D01*
X143299808Y-67880182D01*
X143549101Y-67746932D01*
X143767608Y-67567608D01*
X143946932Y-67349101D01*
X144080182Y-67099808D01*
X144162236Y-66829309D01*
X144189943Y-66548000D01*
X145116057Y-66548000D01*
X145143764Y-66829309D01*
X145225818Y-67099808D01*
X145359068Y-67349101D01*
X145538392Y-67567608D01*
X145756899Y-67746932D01*
X146006192Y-67880182D01*
X146276691Y-67962236D01*
X146487508Y-67983000D01*
X146628492Y-67983000D01*
X146839309Y-67962236D01*
X147109808Y-67880182D01*
X147359101Y-67746932D01*
X147577608Y-67567608D01*
X147756932Y-67349101D01*
X147890182Y-67099808D01*
X147972236Y-66829309D01*
X147999943Y-66548000D01*
X147972236Y-66266691D01*
X147890182Y-65996192D01*
X147756932Y-65746899D01*
X147577608Y-65528392D01*
X147359101Y-65349068D01*
X147109808Y-65215818D01*
X146839309Y-65133764D01*
X146628492Y-65113000D01*
X146487508Y-65113000D01*
X146276691Y-65133764D01*
X146006192Y-65215818D01*
X145756899Y-65349068D01*
X145538392Y-65528392D01*
X145359068Y-65746899D01*
X145225818Y-65996192D01*
X145143764Y-66266691D01*
X145116057Y-66548000D01*
X144189943Y-66548000D01*
X144162236Y-66266691D01*
X144080182Y-65996192D01*
X143946932Y-65746899D01*
X143767608Y-65528392D01*
X143549101Y-65349068D01*
X143299808Y-65215818D01*
X143029309Y-65133764D01*
X142818492Y-65113000D01*
X142677508Y-65113000D01*
X142466691Y-65133764D01*
X142196192Y-65215818D01*
X141946899Y-65349068D01*
X141728392Y-65528392D01*
X141549068Y-65746899D01*
X141415818Y-65996192D01*
X141333764Y-66266691D01*
X141306057Y-66548000D01*
X141141943Y-66548000D01*
X141114236Y-66266691D01*
X141032182Y-65996192D01*
X140898932Y-65746899D01*
X140719608Y-65528392D01*
X140501101Y-65349068D01*
X140251808Y-65215818D01*
X139981309Y-65133764D01*
X139770492Y-65113000D01*
X139629508Y-65113000D01*
X139418691Y-65133764D01*
X139148192Y-65215818D01*
X138898899Y-65349068D01*
X138680392Y-65528392D01*
X138501068Y-65746899D01*
X138367818Y-65996192D01*
X138285764Y-66266691D01*
X138258057Y-66548000D01*
X101244000Y-66548000D01*
X101244000Y-56246665D01*
X138265000Y-56246665D01*
X138265000Y-56529335D01*
X138320147Y-56806574D01*
X138428320Y-57067727D01*
X138585363Y-57302759D01*
X138785241Y-57502637D01*
X139020273Y-57659680D01*
X139281426Y-57767853D01*
X139558665Y-57823000D01*
X139841335Y-57823000D01*
X140118574Y-57767853D01*
X140379727Y-57659680D01*
X140614759Y-57502637D01*
X140814637Y-57302759D01*
X140971680Y-57067727D01*
X141079853Y-56806574D01*
X141135000Y-56529335D01*
X141135000Y-56246665D01*
X141313000Y-56246665D01*
X141313000Y-56529335D01*
X141368147Y-56806574D01*
X141476320Y-57067727D01*
X141633363Y-57302759D01*
X141833241Y-57502637D01*
X142068273Y-57659680D01*
X142329426Y-57767853D01*
X142606665Y-57823000D01*
X142889335Y-57823000D01*
X143166574Y-57767853D01*
X143427727Y-57659680D01*
X143662759Y-57502637D01*
X143862637Y-57302759D01*
X144019680Y-57067727D01*
X144127853Y-56806574D01*
X144183000Y-56529335D01*
X144183000Y-56246665D01*
X145123000Y-56246665D01*
X145123000Y-56529335D01*
X145178147Y-56806574D01*
X145286320Y-57067727D01*
X145443363Y-57302759D01*
X145643241Y-57502637D01*
X145878273Y-57659680D01*
X146139426Y-57767853D01*
X146416665Y-57823000D01*
X146699335Y-57823000D01*
X146976574Y-57767853D01*
X147237727Y-57659680D01*
X147472759Y-57502637D01*
X147672637Y-57302759D01*
X147829680Y-57067727D01*
X147937853Y-56806574D01*
X147993000Y-56529335D01*
X147993000Y-56246665D01*
X147937853Y-55969426D01*
X147829680Y-55708273D01*
X147672637Y-55473241D01*
X147472759Y-55273363D01*
X147237727Y-55116320D01*
X146976574Y-55008147D01*
X146699335Y-54953000D01*
X146416665Y-54953000D01*
X146139426Y-55008147D01*
X145878273Y-55116320D01*
X145643241Y-55273363D01*
X145443363Y-55473241D01*
X145286320Y-55708273D01*
X145178147Y-55969426D01*
X145123000Y-56246665D01*
X144183000Y-56246665D01*
X144127853Y-55969426D01*
X144019680Y-55708273D01*
X143862637Y-55473241D01*
X143662759Y-55273363D01*
X143427727Y-55116320D01*
X143166574Y-55008147D01*
X142889335Y-54953000D01*
X142606665Y-54953000D01*
X142329426Y-55008147D01*
X142068273Y-55116320D01*
X141833241Y-55273363D01*
X141633363Y-55473241D01*
X141476320Y-55708273D01*
X141368147Y-55969426D01*
X141313000Y-56246665D01*
X141135000Y-56246665D01*
X141079853Y-55969426D01*
X140971680Y-55708273D01*
X140814637Y-55473241D01*
X140614759Y-55273363D01*
X140379727Y-55116320D01*
X140118574Y-55008147D01*
X139841335Y-54953000D01*
X139558665Y-54953000D01*
X139281426Y-55008147D01*
X139020273Y-55116320D01*
X138785241Y-55273363D01*
X138585363Y-55473241D01*
X138428320Y-55708273D01*
X138320147Y-55969426D01*
X138265000Y-56246665D01*
X101244000Y-56246665D01*
X101244000Y-52578000D01*
X118196057Y-52578000D01*
X118223764Y-52859309D01*
X118305818Y-53129808D01*
X118439068Y-53379101D01*
X118618392Y-53597608D01*
X118836899Y-53776932D01*
X119086192Y-53910182D01*
X119356691Y-53992236D01*
X119567508Y-54013000D01*
X119708492Y-54013000D01*
X119919309Y-53992236D01*
X120189808Y-53910182D01*
X120439101Y-53776932D01*
X120657608Y-53597608D01*
X120836932Y-53379101D01*
X120908000Y-53246142D01*
X120979068Y-53379101D01*
X121158392Y-53597608D01*
X121376899Y-53776932D01*
X121626192Y-53910182D01*
X121896691Y-53992236D01*
X122107508Y-54013000D01*
X122248492Y-54013000D01*
X122459309Y-53992236D01*
X122729808Y-53910182D01*
X122979101Y-53776932D01*
X123197608Y-53597608D01*
X123376932Y-53379101D01*
X123448000Y-53246142D01*
X123519068Y-53379101D01*
X123698392Y-53597608D01*
X123916899Y-53776932D01*
X124166192Y-53910182D01*
X124436691Y-53992236D01*
X124647508Y-54013000D01*
X124788492Y-54013000D01*
X124999309Y-53992236D01*
X125269808Y-53910182D01*
X125519101Y-53776932D01*
X125737608Y-53597608D01*
X125916932Y-53379101D01*
X125990579Y-53241318D01*
X126105615Y-53433131D01*
X126294586Y-53641519D01*
X126520580Y-53809037D01*
X126774913Y-53929246D01*
X126908961Y-53969904D01*
X127131000Y-53847915D01*
X127131000Y-52705000D01*
X127111000Y-52705000D01*
X127111000Y-52451000D01*
X127131000Y-52451000D01*
X127131000Y-51308085D01*
X127385000Y-51308085D01*
X127385000Y-52451000D01*
X127405000Y-52451000D01*
X127405000Y-52705000D01*
X127385000Y-52705000D01*
X127385000Y-53847915D01*
X127607039Y-53969904D01*
X127741087Y-53929246D01*
X127995420Y-53809037D01*
X128221414Y-53641519D01*
X128410385Y-53433131D01*
X128525421Y-53241318D01*
X128599068Y-53379101D01*
X128778392Y-53597608D01*
X128996899Y-53776932D01*
X129246192Y-53910182D01*
X129516691Y-53992236D01*
X129727508Y-54013000D01*
X129868492Y-54013000D01*
X130079309Y-53992236D01*
X130349808Y-53910182D01*
X130599101Y-53776932D01*
X130817608Y-53597608D01*
X130996932Y-53379101D01*
X131068000Y-53246142D01*
X131139068Y-53379101D01*
X131318392Y-53597608D01*
X131536899Y-53776932D01*
X131786192Y-53910182D01*
X132056691Y-53992236D01*
X132267508Y-54013000D01*
X132408492Y-54013000D01*
X132619309Y-53992236D01*
X132889808Y-53910182D01*
X133139101Y-53776932D01*
X133357608Y-53597608D01*
X133536932Y-53379101D01*
X133608000Y-53246142D01*
X133679068Y-53379101D01*
X133858392Y-53597608D01*
X134076899Y-53776932D01*
X134326192Y-53910182D01*
X134596691Y-53992236D01*
X134807508Y-54013000D01*
X134948492Y-54013000D01*
X135159309Y-53992236D01*
X135429808Y-53910182D01*
X135679101Y-53776932D01*
X135897608Y-53597608D01*
X136076932Y-53379101D01*
X136148000Y-53246142D01*
X136219068Y-53379101D01*
X136398392Y-53597608D01*
X136616899Y-53776932D01*
X136866192Y-53910182D01*
X137136691Y-53992236D01*
X137347508Y-54013000D01*
X137488492Y-54013000D01*
X137699309Y-53992236D01*
X137969808Y-53910182D01*
X138219101Y-53776932D01*
X138437608Y-53597608D01*
X138616932Y-53379101D01*
X138688000Y-53246142D01*
X138759068Y-53379101D01*
X138938392Y-53597608D01*
X139156899Y-53776932D01*
X139406192Y-53910182D01*
X139676691Y-53992236D01*
X139887508Y-54013000D01*
X140028492Y-54013000D01*
X140239309Y-53992236D01*
X140509808Y-53910182D01*
X140759101Y-53776932D01*
X140977608Y-53597608D01*
X141156932Y-53379101D01*
X141228000Y-53246142D01*
X141299068Y-53379101D01*
X141478392Y-53597608D01*
X141696899Y-53776932D01*
X141946192Y-53910182D01*
X142216691Y-53992236D01*
X142427508Y-54013000D01*
X142568492Y-54013000D01*
X142779309Y-53992236D01*
X143049808Y-53910182D01*
X143299101Y-53776932D01*
X143517608Y-53597608D01*
X143696932Y-53379101D01*
X143830182Y-53129808D01*
X143912236Y-52859309D01*
X143939943Y-52578000D01*
X145116057Y-52578000D01*
X145143764Y-52859309D01*
X145225818Y-53129808D01*
X145359068Y-53379101D01*
X145538392Y-53597608D01*
X145756899Y-53776932D01*
X146006192Y-53910182D01*
X146276691Y-53992236D01*
X146487508Y-54013000D01*
X146628492Y-54013000D01*
X146839309Y-53992236D01*
X147109808Y-53910182D01*
X147359101Y-53776932D01*
X147577608Y-53597608D01*
X147756932Y-53379101D01*
X147828000Y-53246142D01*
X147899068Y-53379101D01*
X148078392Y-53597608D01*
X148296899Y-53776932D01*
X148546192Y-53910182D01*
X148816691Y-53992236D01*
X149027508Y-54013000D01*
X149168492Y-54013000D01*
X149379309Y-53992236D01*
X149649808Y-53910182D01*
X149899101Y-53776932D01*
X150117608Y-53597608D01*
X150296932Y-53379101D01*
X150368000Y-53246142D01*
X150439068Y-53379101D01*
X150618392Y-53597608D01*
X150836899Y-53776932D01*
X151086192Y-53910182D01*
X151356691Y-53992236D01*
X151567508Y-54013000D01*
X151708492Y-54013000D01*
X151919309Y-53992236D01*
X152189808Y-53910182D01*
X152439101Y-53776932D01*
X152657608Y-53597608D01*
X152836932Y-53379101D01*
X152908000Y-53246142D01*
X152979068Y-53379101D01*
X153158392Y-53597608D01*
X153376899Y-53776932D01*
X153626192Y-53910182D01*
X153896691Y-53992236D01*
X154107508Y-54013000D01*
X154248492Y-54013000D01*
X154459309Y-53992236D01*
X154729808Y-53910182D01*
X154979101Y-53776932D01*
X155197608Y-53597608D01*
X155376932Y-53379101D01*
X155448000Y-53246142D01*
X155519068Y-53379101D01*
X155698392Y-53597608D01*
X155916899Y-53776932D01*
X156166192Y-53910182D01*
X156436691Y-53992236D01*
X156647508Y-54013000D01*
X156788492Y-54013000D01*
X156999309Y-53992236D01*
X157269808Y-53910182D01*
X157519101Y-53776932D01*
X157737608Y-53597608D01*
X157916932Y-53379101D01*
X157988000Y-53246142D01*
X158059068Y-53379101D01*
X158238392Y-53597608D01*
X158456899Y-53776932D01*
X158706192Y-53910182D01*
X158976691Y-53992236D01*
X159187508Y-54013000D01*
X159328492Y-54013000D01*
X159539309Y-53992236D01*
X159809808Y-53910182D01*
X160059101Y-53776932D01*
X160277608Y-53597608D01*
X160456932Y-53379101D01*
X160528000Y-53246142D01*
X160599068Y-53379101D01*
X160778392Y-53597608D01*
X160996899Y-53776932D01*
X161246192Y-53910182D01*
X161516691Y-53992236D01*
X161727508Y-54013000D01*
X161868492Y-54013000D01*
X162079309Y-53992236D01*
X162349808Y-53910182D01*
X162599101Y-53776932D01*
X162817608Y-53597608D01*
X162996932Y-53379101D01*
X163068000Y-53246142D01*
X163139068Y-53379101D01*
X163318392Y-53597608D01*
X163536899Y-53776932D01*
X163786192Y-53910182D01*
X164056691Y-53992236D01*
X164267508Y-54013000D01*
X164408492Y-54013000D01*
X164619309Y-53992236D01*
X164889808Y-53910182D01*
X165139101Y-53776932D01*
X165357608Y-53597608D01*
X165536932Y-53379101D01*
X165670182Y-53129808D01*
X165752236Y-52859309D01*
X165779943Y-52578000D01*
X165752236Y-52296691D01*
X165670182Y-52026192D01*
X165536932Y-51776899D01*
X165357608Y-51558392D01*
X165139101Y-51379068D01*
X164889808Y-51245818D01*
X164619309Y-51163764D01*
X164408492Y-51143000D01*
X164267508Y-51143000D01*
X164056691Y-51163764D01*
X163786192Y-51245818D01*
X163536899Y-51379068D01*
X163318392Y-51558392D01*
X163139068Y-51776899D01*
X163068000Y-51909858D01*
X162996932Y-51776899D01*
X162817608Y-51558392D01*
X162599101Y-51379068D01*
X162349808Y-51245818D01*
X162079309Y-51163764D01*
X161868492Y-51143000D01*
X161727508Y-51143000D01*
X161516691Y-51163764D01*
X161246192Y-51245818D01*
X160996899Y-51379068D01*
X160778392Y-51558392D01*
X160599068Y-51776899D01*
X160528000Y-51909858D01*
X160456932Y-51776899D01*
X160277608Y-51558392D01*
X160059101Y-51379068D01*
X159809808Y-51245818D01*
X159539309Y-51163764D01*
X159328492Y-51143000D01*
X159187508Y-51143000D01*
X158976691Y-51163764D01*
X158706192Y-51245818D01*
X158456899Y-51379068D01*
X158238392Y-51558392D01*
X158059068Y-51776899D01*
X157988000Y-51909858D01*
X157916932Y-51776899D01*
X157737608Y-51558392D01*
X157519101Y-51379068D01*
X157269808Y-51245818D01*
X156999309Y-51163764D01*
X156788492Y-51143000D01*
X156647508Y-51143000D01*
X156436691Y-51163764D01*
X156166192Y-51245818D01*
X155916899Y-51379068D01*
X155698392Y-51558392D01*
X155519068Y-51776899D01*
X155448000Y-51909858D01*
X155376932Y-51776899D01*
X155197608Y-51558392D01*
X154979101Y-51379068D01*
X154729808Y-51245818D01*
X154459309Y-51163764D01*
X154248492Y-51143000D01*
X154107508Y-51143000D01*
X153896691Y-51163764D01*
X153626192Y-51245818D01*
X153376899Y-51379068D01*
X153158392Y-51558392D01*
X152979068Y-51776899D01*
X152908000Y-51909858D01*
X152836932Y-51776899D01*
X152657608Y-51558392D01*
X152439101Y-51379068D01*
X152189808Y-51245818D01*
X151919309Y-51163764D01*
X151708492Y-51143000D01*
X151567508Y-51143000D01*
X151356691Y-51163764D01*
X151086192Y-51245818D01*
X150836899Y-51379068D01*
X150618392Y-51558392D01*
X150439068Y-51776899D01*
X150368000Y-51909858D01*
X150296932Y-51776899D01*
X150117608Y-51558392D01*
X149899101Y-51379068D01*
X149649808Y-51245818D01*
X149379309Y-51163764D01*
X149168492Y-51143000D01*
X149027508Y-51143000D01*
X148816691Y-51163764D01*
X148546192Y-51245818D01*
X148296899Y-51379068D01*
X148078392Y-51558392D01*
X147899068Y-51776899D01*
X147828000Y-51909858D01*
X147756932Y-51776899D01*
X147577608Y-51558392D01*
X147359101Y-51379068D01*
X147109808Y-51245818D01*
X146839309Y-51163764D01*
X146628492Y-51143000D01*
X146487508Y-51143000D01*
X146276691Y-51163764D01*
X146006192Y-51245818D01*
X145756899Y-51379068D01*
X145538392Y-51558392D01*
X145359068Y-51776899D01*
X145225818Y-52026192D01*
X145143764Y-52296691D01*
X145116057Y-52578000D01*
X143939943Y-52578000D01*
X143912236Y-52296691D01*
X143830182Y-52026192D01*
X143696932Y-51776899D01*
X143517608Y-51558392D01*
X143299101Y-51379068D01*
X143049808Y-51245818D01*
X142779309Y-51163764D01*
X142568492Y-51143000D01*
X142427508Y-51143000D01*
X142216691Y-51163764D01*
X141946192Y-51245818D01*
X141696899Y-51379068D01*
X141478392Y-51558392D01*
X141299068Y-51776899D01*
X141228000Y-51909858D01*
X141156932Y-51776899D01*
X140977608Y-51558392D01*
X140759101Y-51379068D01*
X140509808Y-51245818D01*
X140239309Y-51163764D01*
X140028492Y-51143000D01*
X139887508Y-51143000D01*
X139676691Y-51163764D01*
X139406192Y-51245818D01*
X139156899Y-51379068D01*
X138938392Y-51558392D01*
X138759068Y-51776899D01*
X138688000Y-51909858D01*
X138616932Y-51776899D01*
X138437608Y-51558392D01*
X138219101Y-51379068D01*
X137969808Y-51245818D01*
X137699309Y-51163764D01*
X137488492Y-51143000D01*
X137347508Y-51143000D01*
X137136691Y-51163764D01*
X136866192Y-51245818D01*
X136616899Y-51379068D01*
X136398392Y-51558392D01*
X136219068Y-51776899D01*
X136148000Y-51909858D01*
X136076932Y-51776899D01*
X135897608Y-51558392D01*
X135679101Y-51379068D01*
X135429808Y-51245818D01*
X135159309Y-51163764D01*
X134948492Y-51143000D01*
X134807508Y-51143000D01*
X134596691Y-51163764D01*
X134326192Y-51245818D01*
X134076899Y-51379068D01*
X133858392Y-51558392D01*
X133679068Y-51776899D01*
X133608000Y-51909858D01*
X133536932Y-51776899D01*
X133357608Y-51558392D01*
X133139101Y-51379068D01*
X132889808Y-51245818D01*
X132619309Y-51163764D01*
X132408492Y-51143000D01*
X132267508Y-51143000D01*
X132056691Y-51163764D01*
X131786192Y-51245818D01*
X131536899Y-51379068D01*
X131318392Y-51558392D01*
X131139068Y-51776899D01*
X131068000Y-51909858D01*
X130996932Y-51776899D01*
X130817608Y-51558392D01*
X130599101Y-51379068D01*
X130349808Y-51245818D01*
X130079309Y-51163764D01*
X129868492Y-51143000D01*
X129727508Y-51143000D01*
X129516691Y-51163764D01*
X129246192Y-51245818D01*
X128996899Y-51379068D01*
X128778392Y-51558392D01*
X128599068Y-51776899D01*
X128525421Y-51914682D01*
X128410385Y-51722869D01*
X128221414Y-51514481D01*
X127995420Y-51346963D01*
X127741087Y-51226754D01*
X127607039Y-51186096D01*
X127385000Y-51308085D01*
X127131000Y-51308085D01*
X126908961Y-51186096D01*
X126774913Y-51226754D01*
X126520580Y-51346963D01*
X126294586Y-51514481D01*
X126105615Y-51722869D01*
X125990579Y-51914682D01*
X125916932Y-51776899D01*
X125737608Y-51558392D01*
X125519101Y-51379068D01*
X125269808Y-51245818D01*
X124999309Y-51163764D01*
X124788492Y-51143000D01*
X124647508Y-51143000D01*
X124436691Y-51163764D01*
X124166192Y-51245818D01*
X123916899Y-51379068D01*
X123698392Y-51558392D01*
X123519068Y-51776899D01*
X123448000Y-51909858D01*
X123376932Y-51776899D01*
X123197608Y-51558392D01*
X122979101Y-51379068D01*
X122729808Y-51245818D01*
X122459309Y-51163764D01*
X122248492Y-51143000D01*
X122107508Y-51143000D01*
X121896691Y-51163764D01*
X121626192Y-51245818D01*
X121376899Y-51379068D01*
X121158392Y-51558392D01*
X120979068Y-51776899D01*
X120908000Y-51909858D01*
X120836932Y-51776899D01*
X120657608Y-51558392D01*
X120439101Y-51379068D01*
X120189808Y-51245818D01*
X119919309Y-51163764D01*
X119708492Y-51143000D01*
X119567508Y-51143000D01*
X119356691Y-51163764D01*
X119086192Y-51245818D01*
X118836899Y-51379068D01*
X118618392Y-51558392D01*
X118439068Y-51776899D01*
X118305818Y-52026192D01*
X118223764Y-52296691D01*
X118196057Y-52578000D01*
X101244000Y-52578000D01*
X101244000Y-50444000D01*
X165072394Y-50444000D01*
X166243000Y-51614606D01*
X166243000Y-51614606D01*
G37*
X166243000Y-51614606D02*
X166243000Y-63246000D01*
X166245440Y-63270776D01*
X166252667Y-63294601D01*
X166264403Y-63316557D01*
X166280197Y-63335803D01*
X168783414Y-65839020D01*
X169012001Y-94869622D01*
X169012001Y-98016393D01*
X166280197Y-100748197D01*
X166264403Y-100767443D01*
X166252667Y-100789399D01*
X166245440Y-100813224D01*
X166243000Y-100838000D01*
X166243000Y-102972000D01*
X101244000Y-102972000D01*
X101244000Y-100038000D01*
X127339928Y-100038000D01*
X127339928Y-101638000D01*
X127352188Y-101762482D01*
X127388498Y-101882180D01*
X127447463Y-101992494D01*
X127526815Y-102089185D01*
X127623506Y-102168537D01*
X127733820Y-102227502D01*
X127853518Y-102263812D01*
X127978000Y-102276072D01*
X129578000Y-102276072D01*
X129702482Y-102263812D01*
X129822180Y-102227502D01*
X129932494Y-102168537D01*
X130029185Y-102089185D01*
X130108537Y-101992494D01*
X130167502Y-101882180D01*
X130203812Y-101762482D01*
X130205581Y-101744518D01*
X130298392Y-101857608D01*
X130516899Y-102036932D01*
X130766192Y-102170182D01*
X131036691Y-102252236D01*
X131247508Y-102273000D01*
X131388492Y-102273000D01*
X131599309Y-102252236D01*
X131869808Y-102170182D01*
X132119101Y-102036932D01*
X132337608Y-101857608D01*
X132516932Y-101639101D01*
X132588000Y-101506142D01*
X132659068Y-101639101D01*
X132838392Y-101857608D01*
X133056899Y-102036932D01*
X133306192Y-102170182D01*
X133576691Y-102252236D01*
X133787508Y-102273000D01*
X133928492Y-102273000D01*
X134139309Y-102252236D01*
X134409808Y-102170182D01*
X134659101Y-102036932D01*
X134877608Y-101857608D01*
X135056932Y-101639101D01*
X135128000Y-101506142D01*
X135199068Y-101639101D01*
X135378392Y-101857608D01*
X135596899Y-102036932D01*
X135846192Y-102170182D01*
X136116691Y-102252236D01*
X136327508Y-102273000D01*
X136468492Y-102273000D01*
X136679309Y-102252236D01*
X136949808Y-102170182D01*
X137199101Y-102036932D01*
X137417608Y-101857608D01*
X137596932Y-101639101D01*
X137668000Y-101506142D01*
X137739068Y-101639101D01*
X137918392Y-101857608D01*
X138136899Y-102036932D01*
X138386192Y-102170182D01*
X138656691Y-102252236D01*
X138867508Y-102273000D01*
X139008492Y-102273000D01*
X139219309Y-102252236D01*
X139489808Y-102170182D01*
X139739101Y-102036932D01*
X139957608Y-101857608D01*
X140136932Y-101639101D01*
X140210579Y-101501318D01*
X140325615Y-101693131D01*
X140514586Y-101901519D01*
X140740580Y-102069037D01*
X140994913Y-102189246D01*
X141128961Y-102229904D01*
X141351000Y-102107915D01*
X141351000Y-100965000D01*
X141605000Y-100965000D01*
X141605000Y-102107915D01*
X141827039Y-102229904D01*
X141961087Y-102189246D01*
X142215420Y-102069037D01*
X142441414Y-101901519D01*
X142630385Y-101693131D01*
X142748000Y-101497018D01*
X142865615Y-101693131D01*
X143054586Y-101901519D01*
X143280580Y-102069037D01*
X143534913Y-102189246D01*
X143668961Y-102229904D01*
X143891000Y-102107915D01*
X143891000Y-100965000D01*
X141605000Y-100965000D01*
X141351000Y-100965000D01*
X141331000Y-100965000D01*
X141331000Y-100711000D01*
X141351000Y-100711000D01*
X141351000Y-99568085D01*
X141605000Y-99568085D01*
X141605000Y-100711000D01*
X143891000Y-100711000D01*
X143891000Y-99568085D01*
X144145000Y-99568085D01*
X144145000Y-100711000D01*
X144165000Y-100711000D01*
X144165000Y-100965000D01*
X144145000Y-100965000D01*
X144145000Y-102107915D01*
X144367039Y-102229904D01*
X144501087Y-102189246D01*
X144755420Y-102069037D01*
X144981414Y-101901519D01*
X145170385Y-101693131D01*
X145285421Y-101501318D01*
X145359068Y-101639101D01*
X145538392Y-101857608D01*
X145756899Y-102036932D01*
X146006192Y-102170182D01*
X146276691Y-102252236D01*
X146487508Y-102273000D01*
X146628492Y-102273000D01*
X146839309Y-102252236D01*
X147109808Y-102170182D01*
X147359101Y-102036932D01*
X147577608Y-101857608D01*
X147756932Y-101639101D01*
X147890182Y-101389808D01*
X147972236Y-101119309D01*
X147999943Y-100838000D01*
X150196057Y-100838000D01*
X150223764Y-101119309D01*
X150305818Y-101389808D01*
X150439068Y-101639101D01*
X150618392Y-101857608D01*
X150836899Y-102036932D01*
X151086192Y-102170182D01*
X151356691Y-102252236D01*
X151567508Y-102273000D01*
X151708492Y-102273000D01*
X151919309Y-102252236D01*
X152189808Y-102170182D01*
X152439101Y-102036932D01*
X152657608Y-101857608D01*
X152836932Y-101639101D01*
X152908000Y-101506142D01*
X152979068Y-101639101D01*
X153158392Y-101857608D01*
X153376899Y-102036932D01*
X153626192Y-102170182D01*
X153896691Y-102252236D01*
X154107508Y-102273000D01*
X154248492Y-102273000D01*
X154459309Y-102252236D01*
X154729808Y-102170182D01*
X154979101Y-102036932D01*
X155197608Y-101857608D01*
X155376932Y-101639101D01*
X155448000Y-101506142D01*
X155519068Y-101639101D01*
X155698392Y-101857608D01*
X155916899Y-102036932D01*
X156166192Y-102170182D01*
X156436691Y-102252236D01*
X156647508Y-102273000D01*
X156788492Y-102273000D01*
X156999309Y-102252236D01*
X157269808Y-102170182D01*
X157519101Y-102036932D01*
X157737608Y-101857608D01*
X157916932Y-101639101D01*
X157988000Y-101506142D01*
X158059068Y-101639101D01*
X158238392Y-101857608D01*
X158456899Y-102036932D01*
X158706192Y-102170182D01*
X158976691Y-102252236D01*
X159187508Y-102273000D01*
X159328492Y-102273000D01*
X159539309Y-102252236D01*
X159809808Y-102170182D01*
X160059101Y-102036932D01*
X160277608Y-101857608D01*
X160456932Y-101639101D01*
X160528000Y-101506142D01*
X160599068Y-101639101D01*
X160778392Y-101857608D01*
X160996899Y-102036932D01*
X161246192Y-102170182D01*
X161516691Y-102252236D01*
X161727508Y-102273000D01*
X161868492Y-102273000D01*
X162079309Y-102252236D01*
X162349808Y-102170182D01*
X162599101Y-102036932D01*
X162817608Y-101857608D01*
X162996932Y-101639101D01*
X163068000Y-101506142D01*
X163139068Y-101639101D01*
X163318392Y-101857608D01*
X163536899Y-102036932D01*
X163786192Y-102170182D01*
X164056691Y-102252236D01*
X164267508Y-102273000D01*
X164408492Y-102273000D01*
X164619309Y-102252236D01*
X164889808Y-102170182D01*
X165139101Y-102036932D01*
X165357608Y-101857608D01*
X165536932Y-101639101D01*
X165670182Y-101389808D01*
X165752236Y-101119309D01*
X165779943Y-100838000D01*
X165752236Y-100556691D01*
X165670182Y-100286192D01*
X165536932Y-100036899D01*
X165357608Y-99818392D01*
X165139101Y-99639068D01*
X164889808Y-99505818D01*
X164619309Y-99423764D01*
X164408492Y-99403000D01*
X164267508Y-99403000D01*
X164056691Y-99423764D01*
X163786192Y-99505818D01*
X163536899Y-99639068D01*
X163318392Y-99818392D01*
X163139068Y-100036899D01*
X163068000Y-100169858D01*
X162996932Y-100036899D01*
X162817608Y-99818392D01*
X162599101Y-99639068D01*
X162349808Y-99505818D01*
X162079309Y-99423764D01*
X161868492Y-99403000D01*
X161727508Y-99403000D01*
X161516691Y-99423764D01*
X161246192Y-99505818D01*
X160996899Y-99639068D01*
X160778392Y-99818392D01*
X160599068Y-100036899D01*
X160528000Y-100169858D01*
X160456932Y-100036899D01*
X160277608Y-99818392D01*
X160059101Y-99639068D01*
X159809808Y-99505818D01*
X159539309Y-99423764D01*
X159328492Y-99403000D01*
X159187508Y-99403000D01*
X158976691Y-99423764D01*
X158706192Y-99505818D01*
X158456899Y-99639068D01*
X158238392Y-99818392D01*
X158059068Y-100036899D01*
X157988000Y-100169858D01*
X157916932Y-100036899D01*
X157737608Y-99818392D01*
X157519101Y-99639068D01*
X157269808Y-99505818D01*
X156999309Y-99423764D01*
X156788492Y-99403000D01*
X156647508Y-99403000D01*
X156436691Y-99423764D01*
X156166192Y-99505818D01*
X155916899Y-99639068D01*
X155698392Y-99818392D01*
X155519068Y-100036899D01*
X155448000Y-100169858D01*
X155376932Y-100036899D01*
X155197608Y-99818392D01*
X154979101Y-99639068D01*
X154729808Y-99505818D01*
X154459309Y-99423764D01*
X154248492Y-99403000D01*
X154107508Y-99403000D01*
X153896691Y-99423764D01*
X153626192Y-99505818D01*
X153376899Y-99639068D01*
X153158392Y-99818392D01*
X152979068Y-100036899D01*
X152908000Y-100169858D01*
X152836932Y-100036899D01*
X152657608Y-99818392D01*
X152439101Y-99639068D01*
X152189808Y-99505818D01*
X151919309Y-99423764D01*
X151708492Y-99403000D01*
X151567508Y-99403000D01*
X151356691Y-99423764D01*
X151086192Y-99505818D01*
X150836899Y-99639068D01*
X150618392Y-99818392D01*
X150439068Y-100036899D01*
X150305818Y-100286192D01*
X150223764Y-100556691D01*
X150196057Y-100838000D01*
X147999943Y-100838000D01*
X147972236Y-100556691D01*
X147890182Y-100286192D01*
X147756932Y-100036899D01*
X147577608Y-99818392D01*
X147359101Y-99639068D01*
X147109808Y-99505818D01*
X146839309Y-99423764D01*
X146628492Y-99403000D01*
X146487508Y-99403000D01*
X146276691Y-99423764D01*
X146006192Y-99505818D01*
X145756899Y-99639068D01*
X145538392Y-99818392D01*
X145359068Y-100036899D01*
X145285421Y-100174682D01*
X145170385Y-99982869D01*
X144981414Y-99774481D01*
X144755420Y-99606963D01*
X144501087Y-99486754D01*
X144367039Y-99446096D01*
X144145000Y-99568085D01*
X143891000Y-99568085D01*
X143668961Y-99446096D01*
X143534913Y-99486754D01*
X143280580Y-99606963D01*
X143054586Y-99774481D01*
X142865615Y-99982869D01*
X142748000Y-100178982D01*
X142630385Y-99982869D01*
X142441414Y-99774481D01*
X142215420Y-99606963D01*
X141961087Y-99486754D01*
X141827039Y-99446096D01*
X141605000Y-99568085D01*
X141351000Y-99568085D01*
X141128961Y-99446096D01*
X140994913Y-99486754D01*
X140740580Y-99606963D01*
X140514586Y-99774481D01*
X140325615Y-99982869D01*
X140210579Y-100174682D01*
X140136932Y-100036899D01*
X139957608Y-99818392D01*
X139739101Y-99639068D01*
X139489808Y-99505818D01*
X139219309Y-99423764D01*
X139008492Y-99403000D01*
X138867508Y-99403000D01*
X138656691Y-99423764D01*
X138386192Y-99505818D01*
X138136899Y-99639068D01*
X137918392Y-99818392D01*
X137739068Y-100036899D01*
X137668000Y-100169858D01*
X137596932Y-100036899D01*
X137417608Y-99818392D01*
X137199101Y-99639068D01*
X136949808Y-99505818D01*
X136679309Y-99423764D01*
X136468492Y-99403000D01*
X136327508Y-99403000D01*
X136116691Y-99423764D01*
X135846192Y-99505818D01*
X135596899Y-99639068D01*
X135378392Y-99818392D01*
X135199068Y-100036899D01*
X135128000Y-100169858D01*
X135056932Y-100036899D01*
X134877608Y-99818392D01*
X134659101Y-99639068D01*
X134409808Y-99505818D01*
X134139309Y-99423764D01*
X133928492Y-99403000D01*
X133787508Y-99403000D01*
X133576691Y-99423764D01*
X133306192Y-99505818D01*
X133056899Y-99639068D01*
X132838392Y-99818392D01*
X132659068Y-100036899D01*
X132588000Y-100169858D01*
X132516932Y-100036899D01*
X132337608Y-99818392D01*
X132119101Y-99639068D01*
X131869808Y-99505818D01*
X131599309Y-99423764D01*
X131388492Y-99403000D01*
X131247508Y-99403000D01*
X131036691Y-99423764D01*
X130766192Y-99505818D01*
X130516899Y-99639068D01*
X130298392Y-99818392D01*
X130205581Y-99931482D01*
X130203812Y-99913518D01*
X130167502Y-99793820D01*
X130108537Y-99683506D01*
X130029185Y-99586815D01*
X129932494Y-99507463D01*
X129822180Y-99448498D01*
X129702482Y-99412188D01*
X129578000Y-99399928D01*
X127978000Y-99399928D01*
X127853518Y-99412188D01*
X127733820Y-99448498D01*
X127623506Y-99507463D01*
X127526815Y-99586815D01*
X127447463Y-99683506D01*
X127388498Y-99793820D01*
X127352188Y-99913518D01*
X127339928Y-100038000D01*
X101244000Y-100038000D01*
X101244000Y-95720000D01*
X132419928Y-95720000D01*
X132419928Y-97320000D01*
X132432188Y-97444482D01*
X132468498Y-97564180D01*
X132527463Y-97674494D01*
X132606815Y-97771185D01*
X132703506Y-97850537D01*
X132813820Y-97909502D01*
X132933518Y-97945812D01*
X133058000Y-97958072D01*
X134658000Y-97958072D01*
X134782482Y-97945812D01*
X134902180Y-97909502D01*
X135012494Y-97850537D01*
X135109185Y-97771185D01*
X135188537Y-97674494D01*
X135247502Y-97564180D01*
X135283812Y-97444482D01*
X135296072Y-97320000D01*
X135296072Y-95720000D01*
X135283812Y-95595518D01*
X135247502Y-95475820D01*
X135188537Y-95365506D01*
X135109185Y-95268815D01*
X135012494Y-95189463D01*
X134902180Y-95130498D01*
X134782482Y-95094188D01*
X134658000Y-95081928D01*
X134650785Y-95081928D01*
X134671097Y-95012702D01*
X133858000Y-94199605D01*
X133044903Y-95012702D01*
X133065215Y-95081928D01*
X133058000Y-95081928D01*
X132933518Y-95094188D01*
X132813820Y-95130498D01*
X132703506Y-95189463D01*
X132606815Y-95268815D01*
X132527463Y-95365506D01*
X132468498Y-95475820D01*
X132432188Y-95595518D01*
X132419928Y-95720000D01*
X101244000Y-95720000D01*
X101244000Y-94090512D01*
X132417783Y-94090512D01*
X132459213Y-94370130D01*
X132554397Y-94636292D01*
X132621329Y-94761514D01*
X132865298Y-94833097D01*
X133678395Y-94020000D01*
X134037605Y-94020000D01*
X134850702Y-94833097D01*
X135094671Y-94761514D01*
X135215571Y-94506004D01*
X135284300Y-94231816D01*
X135298217Y-93949488D01*
X135256787Y-93669870D01*
X135161603Y-93403708D01*
X135094671Y-93278486D01*
X134850702Y-93206903D01*
X134037605Y-94020000D01*
X133678395Y-94020000D01*
X132865298Y-93206903D01*
X132621329Y-93278486D01*
X132500429Y-93533996D01*
X132431700Y-93808184D01*
X132417783Y-94090512D01*
X101244000Y-94090512D01*
X101244000Y-93027298D01*
X133044903Y-93027298D01*
X133858000Y-93840395D01*
X134671097Y-93027298D01*
X134599514Y-92783329D01*
X134344004Y-92662429D01*
X134069816Y-92593700D01*
X133787488Y-92579783D01*
X133507870Y-92621213D01*
X133241708Y-92716397D01*
X133116486Y-92783329D01*
X133044903Y-93027298D01*
X101244000Y-93027298D01*
X101244000Y-86980665D01*
X117183000Y-86980665D01*
X117183000Y-87263335D01*
X117238147Y-87540574D01*
X117346320Y-87801727D01*
X117503363Y-88036759D01*
X117703241Y-88236637D01*
X117938273Y-88393680D01*
X118199426Y-88501853D01*
X118476665Y-88557000D01*
X118759335Y-88557000D01*
X119036574Y-88501853D01*
X119297727Y-88393680D01*
X119532759Y-88236637D01*
X119732637Y-88036759D01*
X119889680Y-87801727D01*
X119997853Y-87540574D01*
X120053000Y-87263335D01*
X120053000Y-87122000D01*
X127336057Y-87122000D01*
X127363764Y-87403309D01*
X127445818Y-87673808D01*
X127579068Y-87923101D01*
X127758392Y-88141608D01*
X127976899Y-88320932D01*
X128226192Y-88454182D01*
X128496691Y-88536236D01*
X128707508Y-88557000D01*
X128848492Y-88557000D01*
X129059309Y-88536236D01*
X129329808Y-88454182D01*
X129579101Y-88320932D01*
X129797608Y-88141608D01*
X129976932Y-87923101D01*
X130110182Y-87673808D01*
X130192236Y-87403309D01*
X130219943Y-87122000D01*
X130192236Y-86840691D01*
X130110182Y-86570192D01*
X129976932Y-86320899D01*
X129797608Y-86102392D01*
X129579101Y-85923068D01*
X129329808Y-85789818D01*
X129059309Y-85707764D01*
X128848492Y-85687000D01*
X128707508Y-85687000D01*
X128496691Y-85707764D01*
X128226192Y-85789818D01*
X127976899Y-85923068D01*
X127758392Y-86102392D01*
X127579068Y-86320899D01*
X127445818Y-86570192D01*
X127363764Y-86840691D01*
X127336057Y-87122000D01*
X120053000Y-87122000D01*
X120053000Y-86980665D01*
X119997853Y-86703426D01*
X119889680Y-86442273D01*
X119732637Y-86207241D01*
X119532759Y-86007363D01*
X119297727Y-85850320D01*
X119036574Y-85742147D01*
X118759335Y-85687000D01*
X118476665Y-85687000D01*
X118199426Y-85742147D01*
X117938273Y-85850320D01*
X117703241Y-86007363D01*
X117503363Y-86207241D01*
X117346320Y-86442273D01*
X117238147Y-86703426D01*
X117183000Y-86980665D01*
X101244000Y-86980665D01*
X101244000Y-85482000D01*
X133335928Y-85482000D01*
X133348188Y-85606482D01*
X133384498Y-85726180D01*
X133443463Y-85836494D01*
X133522815Y-85933185D01*
X133619506Y-86012537D01*
X133729820Y-86071502D01*
X133748127Y-86077056D01*
X133681688Y-86143495D01*
X133513701Y-86394905D01*
X133397989Y-86674257D01*
X133339000Y-86970816D01*
X133339000Y-87273184D01*
X133397989Y-87569743D01*
X133513701Y-87849095D01*
X133681688Y-88100505D01*
X133895495Y-88314312D01*
X134146905Y-88482299D01*
X134426257Y-88598011D01*
X134722816Y-88657000D01*
X135025184Y-88657000D01*
X135321743Y-88598011D01*
X135601095Y-88482299D01*
X135852505Y-88314312D01*
X136066312Y-88100505D01*
X136234299Y-87849095D01*
X136350011Y-87569743D01*
X136409000Y-87273184D01*
X136409000Y-86970816D01*
X136350011Y-86674257D01*
X136234299Y-86394905D01*
X136066312Y-86143495D01*
X135999873Y-86077056D01*
X136018180Y-86071502D01*
X136128494Y-86012537D01*
X136225185Y-85933185D01*
X136304537Y-85836494D01*
X136363502Y-85726180D01*
X136399812Y-85606482D01*
X136412072Y-85482000D01*
X136409000Y-84867750D01*
X136250250Y-84709000D01*
X135001000Y-84709000D01*
X135001000Y-84729000D01*
X134747000Y-84729000D01*
X134747000Y-84709000D01*
X133497750Y-84709000D01*
X133339000Y-84867750D01*
X133335928Y-85482000D01*
X101244000Y-85482000D01*
X101244000Y-83682000D01*
X133335928Y-83682000D01*
X133339000Y-84296250D01*
X133497750Y-84455000D01*
X134747000Y-84455000D01*
X134747000Y-83205750D01*
X135001000Y-83205750D01*
X135001000Y-84455000D01*
X136250250Y-84455000D01*
X136409000Y-84296250D01*
X136412072Y-83682000D01*
X136399812Y-83557518D01*
X136363502Y-83437820D01*
X136304537Y-83327506D01*
X136225185Y-83230815D01*
X136128494Y-83151463D01*
X136018180Y-83092498D01*
X135898482Y-83056188D01*
X135774000Y-83043928D01*
X135159750Y-83047000D01*
X135001000Y-83205750D01*
X134747000Y-83205750D01*
X134588250Y-83047000D01*
X133974000Y-83043928D01*
X133849518Y-83056188D01*
X133729820Y-83092498D01*
X133619506Y-83151463D01*
X133522815Y-83230815D01*
X133443463Y-83327506D01*
X133384498Y-83437820D01*
X133348188Y-83557518D01*
X133335928Y-83682000D01*
X101244000Y-83682000D01*
X101244000Y-78956000D01*
X125815928Y-78956000D01*
X125815928Y-80556000D01*
X125828188Y-80680482D01*
X125864498Y-80800180D01*
X125923463Y-80910494D01*
X126002815Y-81007185D01*
X126099506Y-81086537D01*
X126209820Y-81145502D01*
X126329518Y-81181812D01*
X126454000Y-81194072D01*
X128054000Y-81194072D01*
X128178482Y-81181812D01*
X128298180Y-81145502D01*
X128408494Y-81086537D01*
X128505185Y-81007185D01*
X128584537Y-80910494D01*
X128643502Y-80800180D01*
X128679812Y-80680482D01*
X128681581Y-80662518D01*
X128774392Y-80775608D01*
X128992899Y-80954932D01*
X129242192Y-81088182D01*
X129512691Y-81170236D01*
X129723508Y-81191000D01*
X129864492Y-81191000D01*
X130075309Y-81170236D01*
X130345808Y-81088182D01*
X130595101Y-80954932D01*
X130813608Y-80775608D01*
X130992932Y-80557101D01*
X131064000Y-80424142D01*
X131135068Y-80557101D01*
X131314392Y-80775608D01*
X131532899Y-80954932D01*
X131782192Y-81088182D01*
X132052691Y-81170236D01*
X132263508Y-81191000D01*
X132404492Y-81191000D01*
X132615309Y-81170236D01*
X132885808Y-81088182D01*
X133135101Y-80954932D01*
X133353608Y-80775608D01*
X133532932Y-80557101D01*
X133606579Y-80419318D01*
X133721615Y-80611131D01*
X133910586Y-80819519D01*
X134136580Y-80987037D01*
X134390913Y-81107246D01*
X134524961Y-81147904D01*
X134747000Y-81025915D01*
X134747000Y-79883000D01*
X135001000Y-79883000D01*
X135001000Y-81025915D01*
X135223039Y-81147904D01*
X135357087Y-81107246D01*
X135611420Y-80987037D01*
X135837414Y-80819519D01*
X136026385Y-80611131D01*
X136171070Y-80369881D01*
X136265909Y-80105040D01*
X136144624Y-79883000D01*
X135001000Y-79883000D01*
X134747000Y-79883000D01*
X134727000Y-79883000D01*
X134727000Y-79629000D01*
X134747000Y-79629000D01*
X134747000Y-78486085D01*
X135001000Y-78486085D01*
X135001000Y-79629000D01*
X136144624Y-79629000D01*
X136265909Y-79406960D01*
X136171070Y-79142119D01*
X136026385Y-78900869D01*
X135837414Y-78692481D01*
X135611420Y-78524963D01*
X135357087Y-78404754D01*
X135223039Y-78364096D01*
X135001000Y-78486085D01*
X134747000Y-78486085D01*
X134524961Y-78364096D01*
X134390913Y-78404754D01*
X134136580Y-78524963D01*
X133910586Y-78692481D01*
X133721615Y-78900869D01*
X133606579Y-79092682D01*
X133532932Y-78954899D01*
X133353608Y-78736392D01*
X133135101Y-78557068D01*
X132885808Y-78423818D01*
X132615309Y-78341764D01*
X132404492Y-78321000D01*
X132263508Y-78321000D01*
X132052691Y-78341764D01*
X131782192Y-78423818D01*
X131532899Y-78557068D01*
X131314392Y-78736392D01*
X131135068Y-78954899D01*
X131064000Y-79087858D01*
X130992932Y-78954899D01*
X130813608Y-78736392D01*
X130595101Y-78557068D01*
X130345808Y-78423818D01*
X130075309Y-78341764D01*
X129864492Y-78321000D01*
X129723508Y-78321000D01*
X129512691Y-78341764D01*
X129242192Y-78423818D01*
X128992899Y-78557068D01*
X128774392Y-78736392D01*
X128681581Y-78849482D01*
X128679812Y-78831518D01*
X128643502Y-78711820D01*
X128584537Y-78601506D01*
X128505185Y-78504815D01*
X128408494Y-78425463D01*
X128298180Y-78366498D01*
X128178482Y-78330188D01*
X128054000Y-78317928D01*
X126454000Y-78317928D01*
X126329518Y-78330188D01*
X126209820Y-78366498D01*
X126099506Y-78425463D01*
X126002815Y-78504815D01*
X125923463Y-78601506D01*
X125864498Y-78711820D01*
X125828188Y-78831518D01*
X125815928Y-78956000D01*
X101244000Y-78956000D01*
X101244000Y-78116000D01*
X145019928Y-78116000D01*
X145032188Y-78240482D01*
X145068498Y-78360180D01*
X145127463Y-78470494D01*
X145206815Y-78567185D01*
X145303506Y-78646537D01*
X145413820Y-78705502D01*
X145533518Y-78741812D01*
X145658000Y-78754072D01*
X146272250Y-78751000D01*
X146431000Y-78592250D01*
X146431000Y-77343000D01*
X146685000Y-77343000D01*
X146685000Y-78592250D01*
X146843750Y-78751000D01*
X147458000Y-78754072D01*
X147582482Y-78741812D01*
X147702180Y-78705502D01*
X147812494Y-78646537D01*
X147909185Y-78567185D01*
X147988537Y-78470494D01*
X148047502Y-78360180D01*
X148083812Y-78240482D01*
X148096072Y-78116000D01*
X152131928Y-78116000D01*
X152144188Y-78240482D01*
X152180498Y-78360180D01*
X152239463Y-78470494D01*
X152318815Y-78567185D01*
X152415506Y-78646537D01*
X152525820Y-78705502D01*
X152645518Y-78741812D01*
X152770000Y-78754072D01*
X153384250Y-78751000D01*
X153543000Y-78592250D01*
X153543000Y-77343000D01*
X153797000Y-77343000D01*
X153797000Y-78592250D01*
X153955750Y-78751000D01*
X154570000Y-78754072D01*
X154694482Y-78741812D01*
X154814180Y-78705502D01*
X154924494Y-78646537D01*
X155021185Y-78567185D01*
X155100537Y-78470494D01*
X155159502Y-78360180D01*
X155195812Y-78240482D01*
X155208072Y-78116000D01*
X159243928Y-78116000D01*
X159256188Y-78240482D01*
X159292498Y-78360180D01*
X159351463Y-78470494D01*
X159430815Y-78567185D01*
X159527506Y-78646537D01*
X159637820Y-78705502D01*
X159757518Y-78741812D01*
X159882000Y-78754072D01*
X160496250Y-78751000D01*
X160655000Y-78592250D01*
X160655000Y-77343000D01*
X160909000Y-77343000D01*
X160909000Y-78592250D01*
X161067750Y-78751000D01*
X161682000Y-78754072D01*
X161806482Y-78741812D01*
X161926180Y-78705502D01*
X162036494Y-78646537D01*
X162133185Y-78567185D01*
X162212537Y-78470494D01*
X162271502Y-78360180D01*
X162307812Y-78240482D01*
X162320072Y-78116000D01*
X162317000Y-77501750D01*
X162158250Y-77343000D01*
X160909000Y-77343000D01*
X160655000Y-77343000D01*
X159405750Y-77343000D01*
X159247000Y-77501750D01*
X159243928Y-78116000D01*
X155208072Y-78116000D01*
X155205000Y-77501750D01*
X155046250Y-77343000D01*
X153797000Y-77343000D01*
X153543000Y-77343000D01*
X152293750Y-77343000D01*
X152135000Y-77501750D01*
X152131928Y-78116000D01*
X148096072Y-78116000D01*
X148093000Y-77501750D01*
X147934250Y-77343000D01*
X146685000Y-77343000D01*
X146431000Y-77343000D01*
X145181750Y-77343000D01*
X145023000Y-77501750D01*
X145019928Y-78116000D01*
X101244000Y-78116000D01*
X101244000Y-76316000D01*
X145019928Y-76316000D01*
X145023000Y-76930250D01*
X145181750Y-77089000D01*
X146431000Y-77089000D01*
X146431000Y-77069000D01*
X146685000Y-77069000D01*
X146685000Y-77089000D01*
X147934250Y-77089000D01*
X148093000Y-76930250D01*
X148096072Y-76316000D01*
X152131928Y-76316000D01*
X152135000Y-76930250D01*
X152293750Y-77089000D01*
X153543000Y-77089000D01*
X153543000Y-77069000D01*
X153797000Y-77069000D01*
X153797000Y-77089000D01*
X155046250Y-77089000D01*
X155205000Y-76930250D01*
X155208072Y-76316000D01*
X159243928Y-76316000D01*
X159247000Y-76930250D01*
X159405750Y-77089000D01*
X160655000Y-77089000D01*
X160655000Y-77069000D01*
X160909000Y-77069000D01*
X160909000Y-77089000D01*
X162158250Y-77089000D01*
X162317000Y-76930250D01*
X162320072Y-76316000D01*
X162307812Y-76191518D01*
X162271502Y-76071820D01*
X162212537Y-75961506D01*
X162133185Y-75864815D01*
X162036494Y-75785463D01*
X161926180Y-75726498D01*
X161907873Y-75720944D01*
X161974312Y-75654505D01*
X162142299Y-75403095D01*
X162258011Y-75123743D01*
X162317000Y-74827184D01*
X162317000Y-74524816D01*
X162258011Y-74228257D01*
X162142299Y-73948905D01*
X161974312Y-73697495D01*
X161760505Y-73483688D01*
X161509095Y-73315701D01*
X161229743Y-73199989D01*
X160933184Y-73141000D01*
X160630816Y-73141000D01*
X160334257Y-73199989D01*
X160054905Y-73315701D01*
X159803495Y-73483688D01*
X159589688Y-73697495D01*
X159421701Y-73948905D01*
X159305989Y-74228257D01*
X159247000Y-74524816D01*
X159247000Y-74827184D01*
X159305989Y-75123743D01*
X159421701Y-75403095D01*
X159589688Y-75654505D01*
X159656127Y-75720944D01*
X159637820Y-75726498D01*
X159527506Y-75785463D01*
X159430815Y-75864815D01*
X159351463Y-75961506D01*
X159292498Y-76071820D01*
X159256188Y-76191518D01*
X159243928Y-76316000D01*
X155208072Y-76316000D01*
X155195812Y-76191518D01*
X155159502Y-76071820D01*
X155100537Y-75961506D01*
X155021185Y-75864815D01*
X154924494Y-75785463D01*
X154814180Y-75726498D01*
X154795873Y-75720944D01*
X154862312Y-75654505D01*
X155030299Y-75403095D01*
X155146011Y-75123743D01*
X155205000Y-74827184D01*
X155205000Y-74524816D01*
X155146011Y-74228257D01*
X155030299Y-73948905D01*
X154862312Y-73697495D01*
X154648505Y-73483688D01*
X154397095Y-73315701D01*
X154117743Y-73199989D01*
X153821184Y-73141000D01*
X153518816Y-73141000D01*
X153222257Y-73199989D01*
X152942905Y-73315701D01*
X152691495Y-73483688D01*
X152477688Y-73697495D01*
X152309701Y-73948905D01*
X152193989Y-74228257D01*
X152135000Y-74524816D01*
X152135000Y-74827184D01*
X152193989Y-75123743D01*
X152309701Y-75403095D01*
X152477688Y-75654505D01*
X152544127Y-75720944D01*
X152525820Y-75726498D01*
X152415506Y-75785463D01*
X152318815Y-75864815D01*
X152239463Y-75961506D01*
X152180498Y-76071820D01*
X152144188Y-76191518D01*
X152131928Y-76316000D01*
X148096072Y-76316000D01*
X148083812Y-76191518D01*
X148047502Y-76071820D01*
X147988537Y-75961506D01*
X147909185Y-75864815D01*
X147812494Y-75785463D01*
X147702180Y-75726498D01*
X147683873Y-75720944D01*
X147750312Y-75654505D01*
X147918299Y-75403095D01*
X148034011Y-75123743D01*
X148093000Y-74827184D01*
X148093000Y-74524816D01*
X148034011Y-74228257D01*
X147918299Y-73948905D01*
X147750312Y-73697495D01*
X147536505Y-73483688D01*
X147285095Y-73315701D01*
X147005743Y-73199989D01*
X146709184Y-73141000D01*
X146406816Y-73141000D01*
X146110257Y-73199989D01*
X145830905Y-73315701D01*
X145579495Y-73483688D01*
X145365688Y-73697495D01*
X145197701Y-73948905D01*
X145081989Y-74228257D01*
X145023000Y-74524816D01*
X145023000Y-74827184D01*
X145081989Y-75123743D01*
X145197701Y-75403095D01*
X145365688Y-75654505D01*
X145432127Y-75720944D01*
X145413820Y-75726498D01*
X145303506Y-75785463D01*
X145206815Y-75864815D01*
X145127463Y-75961506D01*
X145068498Y-76071820D01*
X145032188Y-76191518D01*
X145019928Y-76316000D01*
X101244000Y-76316000D01*
X101244000Y-72136000D01*
X125812057Y-72136000D01*
X125839764Y-72417309D01*
X125921818Y-72687808D01*
X126055068Y-72937101D01*
X126234392Y-73155608D01*
X126452899Y-73334932D01*
X126702192Y-73468182D01*
X126972691Y-73550236D01*
X127183508Y-73571000D01*
X127324492Y-73571000D01*
X127535309Y-73550236D01*
X127805808Y-73468182D01*
X128055101Y-73334932D01*
X128273608Y-73155608D01*
X128452932Y-72937101D01*
X128524000Y-72804142D01*
X128595068Y-72937101D01*
X128774392Y-73155608D01*
X128992899Y-73334932D01*
X129242192Y-73468182D01*
X129512691Y-73550236D01*
X129723508Y-73571000D01*
X129864492Y-73571000D01*
X130075309Y-73550236D01*
X130345808Y-73468182D01*
X130595101Y-73334932D01*
X130813608Y-73155608D01*
X130992932Y-72937101D01*
X131064000Y-72804142D01*
X131135068Y-72937101D01*
X131314392Y-73155608D01*
X131532899Y-73334932D01*
X131782192Y-73468182D01*
X132052691Y-73550236D01*
X132263508Y-73571000D01*
X132404492Y-73571000D01*
X132615309Y-73550236D01*
X132885808Y-73468182D01*
X133135101Y-73334932D01*
X133353608Y-73155608D01*
X133532932Y-72937101D01*
X133604000Y-72804142D01*
X133675068Y-72937101D01*
X133854392Y-73155608D01*
X134072899Y-73334932D01*
X134322192Y-73468182D01*
X134592691Y-73550236D01*
X134803508Y-73571000D01*
X134944492Y-73571000D01*
X135155309Y-73550236D01*
X135425808Y-73468182D01*
X135675101Y-73334932D01*
X135893608Y-73155608D01*
X136072932Y-72937101D01*
X136206182Y-72687808D01*
X136288236Y-72417309D01*
X136315943Y-72136000D01*
X136288236Y-71854691D01*
X136206182Y-71584192D01*
X136072932Y-71334899D01*
X135893608Y-71116392D01*
X135675101Y-70937068D01*
X135425808Y-70803818D01*
X135155309Y-70721764D01*
X134944492Y-70701000D01*
X134803508Y-70701000D01*
X134592691Y-70721764D01*
X134322192Y-70803818D01*
X134072899Y-70937068D01*
X133854392Y-71116392D01*
X133675068Y-71334899D01*
X133604000Y-71467858D01*
X133532932Y-71334899D01*
X133353608Y-71116392D01*
X133135101Y-70937068D01*
X132885808Y-70803818D01*
X132615309Y-70721764D01*
X132404492Y-70701000D01*
X132263508Y-70701000D01*
X132052691Y-70721764D01*
X131782192Y-70803818D01*
X131532899Y-70937068D01*
X131314392Y-71116392D01*
X131135068Y-71334899D01*
X131064000Y-71467858D01*
X130992932Y-71334899D01*
X130813608Y-71116392D01*
X130595101Y-70937068D01*
X130345808Y-70803818D01*
X130075309Y-70721764D01*
X129864492Y-70701000D01*
X129723508Y-70701000D01*
X129512691Y-70721764D01*
X129242192Y-70803818D01*
X128992899Y-70937068D01*
X128774392Y-71116392D01*
X128595068Y-71334899D01*
X128524000Y-71467858D01*
X128452932Y-71334899D01*
X128273608Y-71116392D01*
X128055101Y-70937068D01*
X127805808Y-70803818D01*
X127535309Y-70721764D01*
X127324492Y-70701000D01*
X127183508Y-70701000D01*
X126972691Y-70721764D01*
X126702192Y-70803818D01*
X126452899Y-70937068D01*
X126234392Y-71116392D01*
X126055068Y-71334899D01*
X125921818Y-71584192D01*
X125839764Y-71854691D01*
X125812057Y-72136000D01*
X101244000Y-72136000D01*
X101244000Y-66548000D01*
X138258057Y-66548000D01*
X138285764Y-66829309D01*
X138367818Y-67099808D01*
X138501068Y-67349101D01*
X138680392Y-67567608D01*
X138898899Y-67746932D01*
X139148192Y-67880182D01*
X139418691Y-67962236D01*
X139629508Y-67983000D01*
X139770492Y-67983000D01*
X139981309Y-67962236D01*
X140251808Y-67880182D01*
X140501101Y-67746932D01*
X140719608Y-67567608D01*
X140898932Y-67349101D01*
X141032182Y-67099808D01*
X141114236Y-66829309D01*
X141141943Y-66548000D01*
X141306057Y-66548000D01*
X141333764Y-66829309D01*
X141415818Y-67099808D01*
X141549068Y-67349101D01*
X141728392Y-67567608D01*
X141946899Y-67746932D01*
X142196192Y-67880182D01*
X142466691Y-67962236D01*
X142677508Y-67983000D01*
X142818492Y-67983000D01*
X143029309Y-67962236D01*
X143299808Y-67880182D01*
X143549101Y-67746932D01*
X143767608Y-67567608D01*
X143946932Y-67349101D01*
X144080182Y-67099808D01*
X144162236Y-66829309D01*
X144189943Y-66548000D01*
X145116057Y-66548000D01*
X145143764Y-66829309D01*
X145225818Y-67099808D01*
X145359068Y-67349101D01*
X145538392Y-67567608D01*
X145756899Y-67746932D01*
X146006192Y-67880182D01*
X146276691Y-67962236D01*
X146487508Y-67983000D01*
X146628492Y-67983000D01*
X146839309Y-67962236D01*
X147109808Y-67880182D01*
X147359101Y-67746932D01*
X147577608Y-67567608D01*
X147756932Y-67349101D01*
X147890182Y-67099808D01*
X147972236Y-66829309D01*
X147999943Y-66548000D01*
X147972236Y-66266691D01*
X147890182Y-65996192D01*
X147756932Y-65746899D01*
X147577608Y-65528392D01*
X147359101Y-65349068D01*
X147109808Y-65215818D01*
X146839309Y-65133764D01*
X146628492Y-65113000D01*
X146487508Y-65113000D01*
X146276691Y-65133764D01*
X146006192Y-65215818D01*
X145756899Y-65349068D01*
X145538392Y-65528392D01*
X145359068Y-65746899D01*
X145225818Y-65996192D01*
X145143764Y-66266691D01*
X145116057Y-66548000D01*
X144189943Y-66548000D01*
X144162236Y-66266691D01*
X144080182Y-65996192D01*
X143946932Y-65746899D01*
X143767608Y-65528392D01*
X143549101Y-65349068D01*
X143299808Y-65215818D01*
X143029309Y-65133764D01*
X142818492Y-65113000D01*
X142677508Y-65113000D01*
X142466691Y-65133764D01*
X142196192Y-65215818D01*
X141946899Y-65349068D01*
X141728392Y-65528392D01*
X141549068Y-65746899D01*
X141415818Y-65996192D01*
X141333764Y-66266691D01*
X141306057Y-66548000D01*
X141141943Y-66548000D01*
X141114236Y-66266691D01*
X141032182Y-65996192D01*
X140898932Y-65746899D01*
X140719608Y-65528392D01*
X140501101Y-65349068D01*
X140251808Y-65215818D01*
X139981309Y-65133764D01*
X139770492Y-65113000D01*
X139629508Y-65113000D01*
X139418691Y-65133764D01*
X139148192Y-65215818D01*
X138898899Y-65349068D01*
X138680392Y-65528392D01*
X138501068Y-65746899D01*
X138367818Y-65996192D01*
X138285764Y-66266691D01*
X138258057Y-66548000D01*
X101244000Y-66548000D01*
X101244000Y-56246665D01*
X138265000Y-56246665D01*
X138265000Y-56529335D01*
X138320147Y-56806574D01*
X138428320Y-57067727D01*
X138585363Y-57302759D01*
X138785241Y-57502637D01*
X139020273Y-57659680D01*
X139281426Y-57767853D01*
X139558665Y-57823000D01*
X139841335Y-57823000D01*
X140118574Y-57767853D01*
X140379727Y-57659680D01*
X140614759Y-57502637D01*
X140814637Y-57302759D01*
X140971680Y-57067727D01*
X141079853Y-56806574D01*
X141135000Y-56529335D01*
X141135000Y-56246665D01*
X141313000Y-56246665D01*
X141313000Y-56529335D01*
X141368147Y-56806574D01*
X141476320Y-57067727D01*
X141633363Y-57302759D01*
X141833241Y-57502637D01*
X142068273Y-57659680D01*
X142329426Y-57767853D01*
X142606665Y-57823000D01*
X142889335Y-57823000D01*
X143166574Y-57767853D01*
X143427727Y-57659680D01*
X143662759Y-57502637D01*
X143862637Y-57302759D01*
X144019680Y-57067727D01*
X144127853Y-56806574D01*
X144183000Y-56529335D01*
X144183000Y-56246665D01*
X145123000Y-56246665D01*
X145123000Y-56529335D01*
X145178147Y-56806574D01*
X145286320Y-57067727D01*
X145443363Y-57302759D01*
X145643241Y-57502637D01*
X145878273Y-57659680D01*
X146139426Y-57767853D01*
X146416665Y-57823000D01*
X146699335Y-57823000D01*
X146976574Y-57767853D01*
X147237727Y-57659680D01*
X147472759Y-57502637D01*
X147672637Y-57302759D01*
X147829680Y-57067727D01*
X147937853Y-56806574D01*
X147993000Y-56529335D01*
X147993000Y-56246665D01*
X147937853Y-55969426D01*
X147829680Y-55708273D01*
X147672637Y-55473241D01*
X147472759Y-55273363D01*
X147237727Y-55116320D01*
X146976574Y-55008147D01*
X146699335Y-54953000D01*
X146416665Y-54953000D01*
X146139426Y-55008147D01*
X145878273Y-55116320D01*
X145643241Y-55273363D01*
X145443363Y-55473241D01*
X145286320Y-55708273D01*
X145178147Y-55969426D01*
X145123000Y-56246665D01*
X144183000Y-56246665D01*
X144127853Y-55969426D01*
X144019680Y-55708273D01*
X143862637Y-55473241D01*
X143662759Y-55273363D01*
X143427727Y-55116320D01*
X143166574Y-55008147D01*
X142889335Y-54953000D01*
X142606665Y-54953000D01*
X142329426Y-55008147D01*
X142068273Y-55116320D01*
X141833241Y-55273363D01*
X141633363Y-55473241D01*
X141476320Y-55708273D01*
X141368147Y-55969426D01*
X141313000Y-56246665D01*
X141135000Y-56246665D01*
X141079853Y-55969426D01*
X140971680Y-55708273D01*
X140814637Y-55473241D01*
X140614759Y-55273363D01*
X140379727Y-55116320D01*
X140118574Y-55008147D01*
X139841335Y-54953000D01*
X139558665Y-54953000D01*
X139281426Y-55008147D01*
X139020273Y-55116320D01*
X138785241Y-55273363D01*
X138585363Y-55473241D01*
X138428320Y-55708273D01*
X138320147Y-55969426D01*
X138265000Y-56246665D01*
X101244000Y-56246665D01*
X101244000Y-52578000D01*
X118196057Y-52578000D01*
X118223764Y-52859309D01*
X118305818Y-53129808D01*
X118439068Y-53379101D01*
X118618392Y-53597608D01*
X118836899Y-53776932D01*
X119086192Y-53910182D01*
X119356691Y-53992236D01*
X119567508Y-54013000D01*
X119708492Y-54013000D01*
X119919309Y-53992236D01*
X120189808Y-53910182D01*
X120439101Y-53776932D01*
X120657608Y-53597608D01*
X120836932Y-53379101D01*
X120908000Y-53246142D01*
X120979068Y-53379101D01*
X121158392Y-53597608D01*
X121376899Y-53776932D01*
X121626192Y-53910182D01*
X121896691Y-53992236D01*
X122107508Y-54013000D01*
X122248492Y-54013000D01*
X122459309Y-53992236D01*
X122729808Y-53910182D01*
X122979101Y-53776932D01*
X123197608Y-53597608D01*
X123376932Y-53379101D01*
X123448000Y-53246142D01*
X123519068Y-53379101D01*
X123698392Y-53597608D01*
X123916899Y-53776932D01*
X124166192Y-53910182D01*
X124436691Y-53992236D01*
X124647508Y-54013000D01*
X124788492Y-54013000D01*
X124999309Y-53992236D01*
X125269808Y-53910182D01*
X125519101Y-53776932D01*
X125737608Y-53597608D01*
X125916932Y-53379101D01*
X125990579Y-53241318D01*
X126105615Y-53433131D01*
X126294586Y-53641519D01*
X126520580Y-53809037D01*
X126774913Y-53929246D01*
X126908961Y-53969904D01*
X127131000Y-53847915D01*
X127131000Y-52705000D01*
X127111000Y-52705000D01*
X127111000Y-52451000D01*
X127131000Y-52451000D01*
X127131000Y-51308085D01*
X127385000Y-51308085D01*
X127385000Y-52451000D01*
X127405000Y-52451000D01*
X127405000Y-52705000D01*
X127385000Y-52705000D01*
X127385000Y-53847915D01*
X127607039Y-53969904D01*
X127741087Y-53929246D01*
X127995420Y-53809037D01*
X128221414Y-53641519D01*
X128410385Y-53433131D01*
X128525421Y-53241318D01*
X128599068Y-53379101D01*
X128778392Y-53597608D01*
X128996899Y-53776932D01*
X129246192Y-53910182D01*
X129516691Y-53992236D01*
X129727508Y-54013000D01*
X129868492Y-54013000D01*
X130079309Y-53992236D01*
X130349808Y-53910182D01*
X130599101Y-53776932D01*
X130817608Y-53597608D01*
X130996932Y-53379101D01*
X131068000Y-53246142D01*
X131139068Y-53379101D01*
X131318392Y-53597608D01*
X131536899Y-53776932D01*
X131786192Y-53910182D01*
X132056691Y-53992236D01*
X132267508Y-54013000D01*
X132408492Y-54013000D01*
X132619309Y-53992236D01*
X132889808Y-53910182D01*
X133139101Y-53776932D01*
X133357608Y-53597608D01*
X133536932Y-53379101D01*
X133608000Y-53246142D01*
X133679068Y-53379101D01*
X133858392Y-53597608D01*
X134076899Y-53776932D01*
X134326192Y-53910182D01*
X134596691Y-53992236D01*
X134807508Y-54013000D01*
X134948492Y-54013000D01*
X135159309Y-53992236D01*
X135429808Y-53910182D01*
X135679101Y-53776932D01*
X135897608Y-53597608D01*
X136076932Y-53379101D01*
X136148000Y-53246142D01*
X136219068Y-53379101D01*
X136398392Y-53597608D01*
X136616899Y-53776932D01*
X136866192Y-53910182D01*
X137136691Y-53992236D01*
X137347508Y-54013000D01*
X137488492Y-54013000D01*
X137699309Y-53992236D01*
X137969808Y-53910182D01*
X138219101Y-53776932D01*
X138437608Y-53597608D01*
X138616932Y-53379101D01*
X138688000Y-53246142D01*
X138759068Y-53379101D01*
X138938392Y-53597608D01*
X139156899Y-53776932D01*
X139406192Y-53910182D01*
X139676691Y-53992236D01*
X139887508Y-54013000D01*
X140028492Y-54013000D01*
X140239309Y-53992236D01*
X140509808Y-53910182D01*
X140759101Y-53776932D01*
X140977608Y-53597608D01*
X141156932Y-53379101D01*
X141228000Y-53246142D01*
X141299068Y-53379101D01*
X141478392Y-53597608D01*
X141696899Y-53776932D01*
X141946192Y-53910182D01*
X142216691Y-53992236D01*
X142427508Y-54013000D01*
X142568492Y-54013000D01*
X142779309Y-53992236D01*
X143049808Y-53910182D01*
X143299101Y-53776932D01*
X143517608Y-53597608D01*
X143696932Y-53379101D01*
X143830182Y-53129808D01*
X143912236Y-52859309D01*
X143939943Y-52578000D01*
X145116057Y-52578000D01*
X145143764Y-52859309D01*
X145225818Y-53129808D01*
X145359068Y-53379101D01*
X145538392Y-53597608D01*
X145756899Y-53776932D01*
X146006192Y-53910182D01*
X146276691Y-53992236D01*
X146487508Y-54013000D01*
X146628492Y-54013000D01*
X146839309Y-53992236D01*
X147109808Y-53910182D01*
X147359101Y-53776932D01*
X147577608Y-53597608D01*
X147756932Y-53379101D01*
X147828000Y-53246142D01*
X147899068Y-53379101D01*
X148078392Y-53597608D01*
X148296899Y-53776932D01*
X148546192Y-53910182D01*
X148816691Y-53992236D01*
X149027508Y-54013000D01*
X149168492Y-54013000D01*
X149379309Y-53992236D01*
X149649808Y-53910182D01*
X149899101Y-53776932D01*
X150117608Y-53597608D01*
X150296932Y-53379101D01*
X150368000Y-53246142D01*
X150439068Y-53379101D01*
X150618392Y-53597608D01*
X150836899Y-53776932D01*
X151086192Y-53910182D01*
X151356691Y-53992236D01*
X151567508Y-54013000D01*
X151708492Y-54013000D01*
X151919309Y-53992236D01*
X152189808Y-53910182D01*
X152439101Y-53776932D01*
X152657608Y-53597608D01*
X152836932Y-53379101D01*
X152908000Y-53246142D01*
X152979068Y-53379101D01*
X153158392Y-53597608D01*
X153376899Y-53776932D01*
X153626192Y-53910182D01*
X153896691Y-53992236D01*
X154107508Y-54013000D01*
X154248492Y-54013000D01*
X154459309Y-53992236D01*
X154729808Y-53910182D01*
X154979101Y-53776932D01*
X155197608Y-53597608D01*
X155376932Y-53379101D01*
X155448000Y-53246142D01*
X155519068Y-53379101D01*
X155698392Y-53597608D01*
X155916899Y-53776932D01*
X156166192Y-53910182D01*
X156436691Y-53992236D01*
X156647508Y-54013000D01*
X156788492Y-54013000D01*
X156999309Y-53992236D01*
X157269808Y-53910182D01*
X157519101Y-53776932D01*
X157737608Y-53597608D01*
X157916932Y-53379101D01*
X157988000Y-53246142D01*
X158059068Y-53379101D01*
X158238392Y-53597608D01*
X158456899Y-53776932D01*
X158706192Y-53910182D01*
X158976691Y-53992236D01*
X159187508Y-54013000D01*
X159328492Y-54013000D01*
X159539309Y-53992236D01*
X159809808Y-53910182D01*
X160059101Y-53776932D01*
X160277608Y-53597608D01*
X160456932Y-53379101D01*
X160528000Y-53246142D01*
X160599068Y-53379101D01*
X160778392Y-53597608D01*
X160996899Y-53776932D01*
X161246192Y-53910182D01*
X161516691Y-53992236D01*
X161727508Y-54013000D01*
X161868492Y-54013000D01*
X162079309Y-53992236D01*
X162349808Y-53910182D01*
X162599101Y-53776932D01*
X162817608Y-53597608D01*
X162996932Y-53379101D01*
X163068000Y-53246142D01*
X163139068Y-53379101D01*
X163318392Y-53597608D01*
X163536899Y-53776932D01*
X163786192Y-53910182D01*
X164056691Y-53992236D01*
X164267508Y-54013000D01*
X164408492Y-54013000D01*
X164619309Y-53992236D01*
X164889808Y-53910182D01*
X165139101Y-53776932D01*
X165357608Y-53597608D01*
X165536932Y-53379101D01*
X165670182Y-53129808D01*
X165752236Y-52859309D01*
X165779943Y-52578000D01*
X165752236Y-52296691D01*
X165670182Y-52026192D01*
X165536932Y-51776899D01*
X165357608Y-51558392D01*
X165139101Y-51379068D01*
X164889808Y-51245818D01*
X164619309Y-51163764D01*
X164408492Y-51143000D01*
X164267508Y-51143000D01*
X164056691Y-51163764D01*
X163786192Y-51245818D01*
X163536899Y-51379068D01*
X163318392Y-51558392D01*
X163139068Y-51776899D01*
X163068000Y-51909858D01*
X162996932Y-51776899D01*
X162817608Y-51558392D01*
X162599101Y-51379068D01*
X162349808Y-51245818D01*
X162079309Y-51163764D01*
X161868492Y-51143000D01*
X161727508Y-51143000D01*
X161516691Y-51163764D01*
X161246192Y-51245818D01*
X160996899Y-51379068D01*
X160778392Y-51558392D01*
X160599068Y-51776899D01*
X160528000Y-51909858D01*
X160456932Y-51776899D01*
X160277608Y-51558392D01*
X160059101Y-51379068D01*
X159809808Y-51245818D01*
X159539309Y-51163764D01*
X159328492Y-51143000D01*
X159187508Y-51143000D01*
X158976691Y-51163764D01*
X158706192Y-51245818D01*
X158456899Y-51379068D01*
X158238392Y-51558392D01*
X158059068Y-51776899D01*
X157988000Y-51909858D01*
X157916932Y-51776899D01*
X157737608Y-51558392D01*
X157519101Y-51379068D01*
X157269808Y-51245818D01*
X156999309Y-51163764D01*
X156788492Y-51143000D01*
X156647508Y-51143000D01*
X156436691Y-51163764D01*
X156166192Y-51245818D01*
X155916899Y-51379068D01*
X155698392Y-51558392D01*
X155519068Y-51776899D01*
X155448000Y-51909858D01*
X155376932Y-51776899D01*
X155197608Y-51558392D01*
X154979101Y-51379068D01*
X154729808Y-51245818D01*
X154459309Y-51163764D01*
X154248492Y-51143000D01*
X154107508Y-51143000D01*
X153896691Y-51163764D01*
X153626192Y-51245818D01*
X153376899Y-51379068D01*
X153158392Y-51558392D01*
X152979068Y-51776899D01*
X152908000Y-51909858D01*
X152836932Y-51776899D01*
X152657608Y-51558392D01*
X152439101Y-51379068D01*
X152189808Y-51245818D01*
X151919309Y-51163764D01*
X151708492Y-51143000D01*
X151567508Y-51143000D01*
X151356691Y-51163764D01*
X151086192Y-51245818D01*
X150836899Y-51379068D01*
X150618392Y-51558392D01*
X150439068Y-51776899D01*
X150368000Y-51909858D01*
X150296932Y-51776899D01*
X150117608Y-51558392D01*
X149899101Y-51379068D01*
X149649808Y-51245818D01*
X149379309Y-51163764D01*
X149168492Y-51143000D01*
X149027508Y-51143000D01*
X148816691Y-51163764D01*
X148546192Y-51245818D01*
X148296899Y-51379068D01*
X148078392Y-51558392D01*
X147899068Y-51776899D01*
X147828000Y-51909858D01*
X147756932Y-51776899D01*
X147577608Y-51558392D01*
X147359101Y-51379068D01*
X147109808Y-51245818D01*
X146839309Y-51163764D01*
X146628492Y-51143000D01*
X146487508Y-51143000D01*
X146276691Y-51163764D01*
X146006192Y-51245818D01*
X145756899Y-51379068D01*
X145538392Y-51558392D01*
X145359068Y-51776899D01*
X145225818Y-52026192D01*
X145143764Y-52296691D01*
X145116057Y-52578000D01*
X143939943Y-52578000D01*
X143912236Y-52296691D01*
X143830182Y-52026192D01*
X143696932Y-51776899D01*
X143517608Y-51558392D01*
X143299101Y-51379068D01*
X143049808Y-51245818D01*
X142779309Y-51163764D01*
X142568492Y-51143000D01*
X142427508Y-51143000D01*
X142216691Y-51163764D01*
X141946192Y-51245818D01*
X141696899Y-51379068D01*
X141478392Y-51558392D01*
X141299068Y-51776899D01*
X141228000Y-51909858D01*
X141156932Y-51776899D01*
X140977608Y-51558392D01*
X140759101Y-51379068D01*
X140509808Y-51245818D01*
X140239309Y-51163764D01*
X140028492Y-51143000D01*
X139887508Y-51143000D01*
X139676691Y-51163764D01*
X139406192Y-51245818D01*
X139156899Y-51379068D01*
X138938392Y-51558392D01*
X138759068Y-51776899D01*
X138688000Y-51909858D01*
X138616932Y-51776899D01*
X138437608Y-51558392D01*
X138219101Y-51379068D01*
X137969808Y-51245818D01*
X137699309Y-51163764D01*
X137488492Y-51143000D01*
X137347508Y-51143000D01*
X137136691Y-51163764D01*
X136866192Y-51245818D01*
X136616899Y-51379068D01*
X136398392Y-51558392D01*
X136219068Y-51776899D01*
X136148000Y-51909858D01*
X136076932Y-51776899D01*
X135897608Y-51558392D01*
X135679101Y-51379068D01*
X135429808Y-51245818D01*
X135159309Y-51163764D01*
X134948492Y-51143000D01*
X134807508Y-51143000D01*
X134596691Y-51163764D01*
X134326192Y-51245818D01*
X134076899Y-51379068D01*
X133858392Y-51558392D01*
X133679068Y-51776899D01*
X133608000Y-51909858D01*
X133536932Y-51776899D01*
X133357608Y-51558392D01*
X133139101Y-51379068D01*
X132889808Y-51245818D01*
X132619309Y-51163764D01*
X132408492Y-51143000D01*
X132267508Y-51143000D01*
X132056691Y-51163764D01*
X131786192Y-51245818D01*
X131536899Y-51379068D01*
X131318392Y-51558392D01*
X131139068Y-51776899D01*
X131068000Y-51909858D01*
X130996932Y-51776899D01*
X130817608Y-51558392D01*
X130599101Y-51379068D01*
X130349808Y-51245818D01*
X130079309Y-51163764D01*
X129868492Y-51143000D01*
X129727508Y-51143000D01*
X129516691Y-51163764D01*
X129246192Y-51245818D01*
X128996899Y-51379068D01*
X128778392Y-51558392D01*
X128599068Y-51776899D01*
X128525421Y-51914682D01*
X128410385Y-51722869D01*
X128221414Y-51514481D01*
X127995420Y-51346963D01*
X127741087Y-51226754D01*
X127607039Y-51186096D01*
X127385000Y-51308085D01*
X127131000Y-51308085D01*
X126908961Y-51186096D01*
X126774913Y-51226754D01*
X126520580Y-51346963D01*
X126294586Y-51514481D01*
X126105615Y-51722869D01*
X125990579Y-51914682D01*
X125916932Y-51776899D01*
X125737608Y-51558392D01*
X125519101Y-51379068D01*
X125269808Y-51245818D01*
X124999309Y-51163764D01*
X124788492Y-51143000D01*
X124647508Y-51143000D01*
X124436691Y-51163764D01*
X124166192Y-51245818D01*
X123916899Y-51379068D01*
X123698392Y-51558392D01*
X123519068Y-51776899D01*
X123448000Y-51909858D01*
X123376932Y-51776899D01*
X123197608Y-51558392D01*
X122979101Y-51379068D01*
X122729808Y-51245818D01*
X122459309Y-51163764D01*
X122248492Y-51143000D01*
X122107508Y-51143000D01*
X121896691Y-51163764D01*
X121626192Y-51245818D01*
X121376899Y-51379068D01*
X121158392Y-51558392D01*
X120979068Y-51776899D01*
X120908000Y-51909858D01*
X120836932Y-51776899D01*
X120657608Y-51558392D01*
X120439101Y-51379068D01*
X120189808Y-51245818D01*
X119919309Y-51163764D01*
X119708492Y-51143000D01*
X119567508Y-51143000D01*
X119356691Y-51163764D01*
X119086192Y-51245818D01*
X118836899Y-51379068D01*
X118618392Y-51558392D01*
X118439068Y-51776899D01*
X118305818Y-52026192D01*
X118223764Y-52296691D01*
X118196057Y-52578000D01*
X101244000Y-52578000D01*
X101244000Y-50444000D01*
X165072394Y-50444000D01*
X166243000Y-51614606D01*
M02*
